<svg width="101" height="101" viewBox="0 0 101 101" fill="none" xmlns="http://www.w3.org/2000/svg">
<g clip-path="url(#clip0_6875_24505)">
<g clip-path="url(#clip1_6875_24505)">
<path d="M48.3292 -7.89911C50.3514 -7.79648 51.6809 -7.29384 52.4675 -6.13141C55.2639 -2.08788 47.5448 8.14224 35.2776 16.4949C23.0104 24.8475 10.6351 28.4128 7.83869 24.3693C7.10209 23.2935 7.09491 21.681 7.79395 19.8918L7.97696 19.2088" stroke="#3AA194" stroke-width="1.5" stroke-linecap="round" stroke-linejoin="round"/>
<path d="M44.4292 -14.6541C46.4015 -14.6381 47.7809 -14.0489 48.5175 -12.973C51.3139 -8.9295 43.5948 1.30063 31.3276 9.65326C19.0605 18.0059 6.73514 21.6578 3.88873 17.5277C3.15213 16.4519 3.14495 14.8394 3.84399 13.0502L4.077 12.4538" stroke="#3AA194" stroke-width="1.5" stroke-linecap="round" stroke-linejoin="round"/>
<path d="M56.2792 5.87067C58.2514 5.88669 59.6309 6.47593 60.3675 7.55176C63.2139 11.6819 55.4448 21.8254 43.2276 30.2646C31.0104 38.7039 18.5851 42.1826 15.7887 38.1391C15.0021 36.9766 15.0449 35.4508 15.694 33.575L15.927 32.9785" stroke="#3AA194" stroke-width="1.5" stroke-linecap="round" stroke-linejoin="round"/>
<path d="M52.3292 -0.970884C54.3514 -0.868256 55.6809 -0.365622 56.4675 0.796814C59.2639 4.84034 51.4948 14.9839 39.2776 23.4231C27.0604 31.8623 14.6351 35.341 11.8387 31.2975C11.0521 30.1351 11.0949 28.6092 11.794 26.82L11.977 26.137" stroke="#3AA194" stroke-width="1.5" stroke-linecap="round" stroke-linejoin="round"/>
<path d="M60.1926 12.8489C62.0783 12.9149 63.5443 13.4541 64.3309 14.6166C67.0407 18.7101 59.4448 28.7536 47.2642 37.0563C35.0837 45.3589 23.0182 48.8608 20.1717 44.7307C19.4351 43.6548 19.428 42.0424 20.127 40.2532L20.36 39.6568" stroke="#3AA194" stroke-width="1.5" stroke-linecap="round" stroke-linejoin="round"/>
<path d="M63.8864 20.6467C65.772 20.7128 67.1515 21.302 67.8881 22.3778C70.7345 26.5079 63.485 36.3515 51.6508 44.4541C39.8167 52.5567 27.911 55.7354 25.1146 51.6919C24.328 50.5295 24.3708 49.0037 24.9832 47.2644L25.1662 46.5814" stroke="#3AA194" stroke-width="1.5" stroke-linecap="round" stroke-linejoin="round"/>
<path d="M67.5802 28.4446C69.3792 28.5606 70.7087 29.0633 71.3953 30.0525C74.0917 33.9228 66.952 43.3565 55.6374 51.1592C44.3229 58.9618 32.8636 62.1137 30.1672 58.2434C29.8617 57.5877 29.6936 56.8765 29.6733 56.1534C29.653 55.4304 29.781 54.7108 30.0492 54.0391C30.1902 53.8712 30.272 53.6616 30.2823 53.4427" stroke="#3AA194" stroke-width="1.5" stroke-linecap="round" stroke-linejoin="round"/>
<path d="M70.7775 36.1826C71.4694 36.1506 72.1596 36.2754 72.7965 36.5474C73.4334 36.8195 74.0007 37.2319 74.456 37.7538C77.0158 41.5876 70.3457 50.6347 59.5874 58.0007C48.8291 65.3667 38.026 68.2552 35.3796 64.4715C34.693 63.4823 34.6992 62.0931 35.225 60.4038L35.4581 59.8074" stroke="#3AA194" stroke-width="1.5" stroke-linecap="round" stroke-linejoin="round"/>
<path d="M73.7517 43.9339C74.4056 43.8933 75.0601 44.0027 75.6653 44.2537C76.2705 44.5046 76.8103 44.8906 77.2436 45.382C79.6034 48.8693 73.3029 57.3566 63.1008 64.286C52.8987 71.2155 42.6786 74.1138 40.3188 70.6265C39.67 69.7694 39.6396 68.5168 40.2277 66.8686L40.3741 66.3222" stroke="#3AA194" stroke-width="1.5" stroke-linecap="round" stroke-linejoin="round"/>
<path d="M76.5991 51.0658C77.2038 51.0432 77.806 51.1548 78.3625 51.3925C78.919 51.6302 79.416 51.9882 79.8178 52.4406C82.0776 55.7547 76.1467 63.6822 66.5874 70.1251C57.0281 76.5679 47.4777 79.426 45.2179 76.1119C44.9195 75.5732 44.7564 74.9699 44.7429 74.3542C44.7294 73.7384 44.8657 73.1286 45.1401 72.5773L45.3366 72.1174" stroke="#3AA194" stroke-width="1.5" stroke-linecap="round" stroke-linejoin="round"/>
<path d="M79.0037 59.0306C79.5384 59.0054 80.0715 59.1069 80.5596 59.3267C81.0477 59.5465 81.477 59.8785 81.8125 60.2956C83.8723 63.2633 78.7807 70.2444 70.4705 75.8506C62.1602 81.4568 53.7856 83.7516 51.8624 80.8205C51.5749 80.3559 51.4072 79.8271 51.3745 79.2817C51.3417 78.7363 51.445 78.1913 51.6748 77.6956C51.7114 77.559 51.698 77.3358 51.8212 77.1492" stroke="#3AA194" stroke-width="1.5" stroke-linecap="round" stroke-linejoin="round"/>
<path d="M79.9627 68.2918C80.3777 68.2894 80.7872 68.3864 81.1571 68.5747C81.5269 68.7629 81.8463 69.037 82.0886 69.3739C83.6484 71.4755 79.8888 76.7638 73.8169 80.8468C67.7449 84.9298 61.4889 86.6942 59.9657 84.4559C59.6207 83.7105 59.5857 82.8585 59.8683 82.0873L59.9781 81.6775" stroke="#3AA194" stroke-width="1.5" stroke-linecap="round" stroke-linejoin="round"/>
<path d="M44.6256 -15.1139C42.7249 -10.206 36.2441 -3.23117 27.3776 2.81165C15.0738 11.3009 2.78511 14.8162 -0.0613028 10.6861C-0.434258 10.0925 -0.630887 9.40509 -0.62829 8.70403" stroke="#3AA194" stroke-width="1.5" stroke-linecap="round" stroke-linejoin="round"/>
<path d="M67.0119 84.6601L70.6145 88.7001C70.6145 88.7001 83.5023 83.2223 79.4389 75.9843" stroke="#3AA194" stroke-width="1.5" stroke-linecap="round" stroke-linejoin="round"/>
<path d="M38.4165 -33.4684C34.3472 -28.1167 26.3271 -21.4079 16.308 -15.1615C6.28891 -8.91509 -3.66416 -4.55431 -10.1701 -3.22297" stroke="#3AA194" stroke-miterlimit="10"/>
<path d="M39.5665 -31.4766C35.4471 -26.2115 27.4771 -19.4161 17.458 -13.1697C7.43888 -6.92325 -2.51419 -2.56248 -9.02015 -1.23113" stroke="#3AA194" stroke-miterlimit="10"/>
<path d="M40.7165 -29.4846C36.5972 -24.2196 28.6271 -17.4241 18.608 -11.1777C8.58891 -4.93131 -1.36416 -0.570534 -7.87012 0.760813" stroke="#3AA194" stroke-miterlimit="10"/>
<path d="M41.8665 -27.4928C37.7472 -22.2278 29.7771 -15.4323 19.758 -9.1859C9.73893 -2.93949 -0.214143 1.42128 -6.7701 2.66603" stroke="#3AA194" stroke-miterlimit="10"/>
<path d="M44.1665 -23.5091C40.0472 -18.244 32.0771 -11.4486 22.058 -5.20215C12.0389 1.04426 2.08584 5.40503 -4.47012 6.64978" stroke="#3AA194" stroke-miterlimit="10"/>
<path d="M45.0478 -17.7826C40.6419 -12.814 33.3378 -6.86493 24.308 -1.30512C17.8523 2.90323 10.9339 6.35511 3.68939 8.98245" stroke="#3AA194" stroke-miterlimit="10"/>
<path d="M43.0165 -25.501C38.8972 -20.2359 30.9271 -13.4405 20.908 -7.19408C10.8889 -0.947667 0.93582 3.4131 -5.62014 4.65785" stroke="#3AA194" stroke-miterlimit="10"/>
<path d="M45.3165 -21.5172C41.1972 -16.2521 33.2271 -9.4567 23.208 -3.21029C13.1889 3.03612 4.41166 6.8335 -2.0809 8.38805" stroke="#3AA194" stroke-miterlimit="10"/>
<path d="M-20.1868 -124.572L-16.8368 -118.77C-16.3872 -118.78 -15.9431 -118.669 -15.5514 -118.448C-15.1597 -118.227 -14.8348 -117.905 -14.611 -117.515L-8.41097 -106.776C-7.38836 -106.664 -6.40365 -106.325 -5.52892 -105.784L-1.3995 -100.432C3.34403 -102.016 11.3108 -98.417 11.3108 -98.417L28.1108 -69.3185L33.2299 -42.2518L45.6299 -20.7744C45.6299 -20.7744 46.2096 -10.3704 25.5116 1.57962C4.8136 13.5296 -3.82012 7.77557 -3.82012 7.77557L-16.2201 -13.7019L-37.101 -31.6685L-53.901 -60.767C-53.901 -60.767 -53.1208 -69.4157 -49.2907 -72.7818L-51.8613 -79.0341C-51.8927 -80.0623 -51.6938 -81.0846 -51.2792 -82.026L-57.4792 -92.7647C-57.7089 -93.14 -57.8355 -93.5693 -57.8462 -94.0092C-57.8569 -94.4491 -57.7512 -94.884 -57.54 -95.27L-60.89 -101.072" stroke="#3AA194" stroke-width="1.5" stroke-linecap="round" stroke-linejoin="round"/>
</g>
</g>
<defs>
<clipPath id="clip0_6875_24505">
<rect width="101" height="101" fill="white"/>
</clipPath>
<clipPath id="clip1_6875_24505">
<rect width="78.2" height="250.9" fill="white" transform="translate(-84 -109.9) rotate(-30)"/>
</clipPath>
</defs>
</svg>
