<svg width="70" height="71" viewBox="0 0 70 71" fill="none" xmlns="http://www.w3.org/2000/svg">
<g id="Group">
<path id="Vector" d="M17.8748 6.04232C17.8748 4.9262 17.4315 3.85579 16.6422 3.06658C15.853 2.27736 14.7826 1.83398 13.6665 1.83398H5.24984C4.13372 1.83398 3.06331 2.27736 2.2741 3.06658C1.48488 3.85579 1.0415 4.9262 1.0415 6.04232V64.959C1.0415 66.0751 1.48488 67.1455 2.2741 67.9347C3.06331 68.7239 4.13372 69.1673 5.24984 69.1673H13.6665C14.7826 69.1673 15.853 68.7239 16.6422 67.9347C17.4315 67.1455 17.8748 66.0751 17.8748 64.959M17.8748 6.04232V64.959M17.8748 6.04232C17.8748 4.9262 18.3182 3.85579 19.1074 3.06658C19.8966 2.27736 20.967 1.83398 22.0832 1.83398H30.4998C31.616 1.83398 32.6864 2.27736 33.4756 3.06658C34.2648 3.85579 34.7082 4.9262 34.7082 6.04232V64.959C34.7082 66.0751 34.2648 67.1455 33.4756 67.9347C32.6864 68.7239 31.616 69.1673 30.4998 69.1673H22.0832C20.967 69.1673 19.8966 68.7239 19.1074 67.9347C18.3182 67.1455 17.8748 66.0751 17.8748 64.959M1.0415 18.6673H17.8748M17.8748 52.334H34.7082" stroke="#3AA194" stroke-width="2" stroke-linecap="round" stroke-linejoin="round"/>
<path id="Vector_2" d="M38.9167 22.8759L55.7501 18.6676M47.3334 52.3343L63.8427 48.2101M38.0877 4.19093L47.2787 1.96052C49.6438 1.39239 52.0467 2.7601 52.6738 5.04102L68.2236 61.5084C68.4979 62.5422 68.3764 63.6412 67.8829 64.5901C67.3894 65.5389 66.5594 66.2694 65.5555 66.6384L64.9958 66.8109L55.8048 69.0413C53.4397 69.6095 51.0367 68.2418 50.4097 65.9609L34.8599 9.49343C34.5856 8.45965 34.7071 7.3607 35.2006 6.41181C35.6941 5.46292 36.5241 4.73245 37.528 4.36347L38.0877 4.19093Z" stroke="#3AA194" stroke-width="2" stroke-linecap="round" stroke-linejoin="round"/>
</g>
</svg>
