<svg width="101" height="101" viewBox="0 0 101 101" fill="none" xmlns="http://www.w3.org/2000/svg">
<g clip-path="url(#clip0_6875_25051)">
<path d="M50.8777 31.9663C48.8004 31.9663 44.2412 31.5886 44.2412 28.6211C44.2412 25.8964 48.4497 25.2219 50.8777 25.2219" stroke="#3AA194" stroke-linecap="round" stroke-linejoin="round"/>
<path d="M50.8777 31.9663C52.955 31.9663 57.5142 31.5886 57.5142 28.6211C57.5142 25.8964 53.3057 25.2219 50.8777 25.2219" stroke="#3AA194" stroke-linecap="round" stroke-linejoin="round"/>
<path d="M50.8777 27.5149C52.308 27.5149 53.4675 27.2129 53.4675 26.8405C53.4675 26.468 52.308 26.166 50.8777 26.166C49.4474 26.166 48.2878 26.468 48.2878 26.8405C48.2878 27.2129 49.4474 27.5149 50.8777 27.5149Z" stroke="#3AA194" stroke-linecap="round" stroke-linejoin="round"/>
<path d="M57.4871 66.5515C57.9188 66.8213 58.1885 67.145 58.2155 67.4957C58.3234 68.8176 55.1401 70.1665 51.1204 70.4633C47.1008 70.76 43.7556 69.9237 43.6746 68.6018C43.6476 68.2511 43.8635 67.8734 44.2681 67.5497C44.3221 67.5227 44.3491 67.4688 44.403 67.4418" stroke="#3AA194" stroke-linecap="round" stroke-linejoin="round"/>
<path d="M57.4871 64.4203C57.9188 64.6901 58.1885 65.0138 58.2155 65.3645C58.3234 66.6864 55.1401 68.0353 51.1204 68.332C47.1008 68.6288 43.7556 67.7925 43.6746 66.4706C43.6476 66.1199 43.8635 65.7422 44.2681 65.4185C44.3221 65.3915 44.3491 65.3375 44.403 65.3105" stroke="#3AA194" stroke-linecap="round" stroke-linejoin="round"/>
<path d="M57.4871 70.8409C57.9188 71.1107 58.1885 71.4344 58.2155 71.7852C58.3234 73.1071 55.1401 74.4559 51.1204 74.7527C47.1008 75.0494 43.7556 74.2131 43.6746 72.8912C43.6476 72.5405 43.8635 72.1628 44.2681 71.8391C44.3221 71.8121 44.3491 71.7582 44.403 71.7312" stroke="#3AA194" stroke-linecap="round" stroke-linejoin="round"/>
<path d="M57.4871 68.7097C57.9188 68.9795 58.1885 69.3032 58.2155 69.6539C58.3234 70.9758 55.1401 72.3247 51.1204 72.6215C47.1008 72.9182 43.7556 72.0819 43.6746 70.76C43.6476 70.4093 43.8635 70.0316 44.2681 69.7079C44.3221 69.6809 44.3491 69.627 44.403 69.6" stroke="#3AA194" stroke-linecap="round" stroke-linejoin="round"/>
<path d="M57.4333 72.9991C57.8649 73.2689 58.1347 73.5927 58.1617 73.9434C58.2696 75.2653 55.1402 76.6141 51.1745 76.9109C47.2088 77.2076 43.9175 76.3713 43.8096 75.0494C43.7827 74.6987 43.9985 74.321 44.3762 73.9973C44.4301 73.9703 44.4571 73.9164 44.5111 73.8894" stroke="#3AA194" stroke-linecap="round" stroke-linejoin="round"/>
<path d="M57.2713 75.2922C57.703 75.562 57.9458 75.8857 57.9728 76.2365C58.0807 77.5584 55.0322 78.8803 51.1744 79.177C47.3166 79.4738 44.1063 78.6375 44.0254 77.2886C43.9984 76.9379 44.1872 76.5602 44.5919 76.2365C44.6458 76.2095 44.6728 76.1555 44.7268 76.1285" stroke="#3AA194" stroke-linecap="round" stroke-linejoin="round"/>
<path d="M57.0555 77.6123C57.4602 77.8821 57.703 78.1788 57.73 78.5026C57.8379 79.7705 54.8973 81.0115 51.2014 81.2813C47.5055 81.578 44.403 80.7687 44.3221 79.5007C44.2951 79.15 44.484 78.8263 44.8617 78.5026C44.9156 78.4756 44.9426 78.4216 44.9966 78.3947" stroke="#3AA194" stroke-linecap="round" stroke-linejoin="round"/>
<path d="M56.7588 79.8514C57.1365 80.0942 57.3793 80.391 57.4062 80.7147C57.4872 81.9557 54.7355 83.1697 51.2284 83.4125C47.7213 83.6553 44.8077 82.8999 44.6998 81.6859C44.6728 81.3622 44.8617 81.0385 45.2124 80.7147C45.2663 80.6877 45.2933 80.6338 45.3473 80.6068" stroke="#3AA194" stroke-linecap="round" stroke-linejoin="round"/>
<path d="M56.4351 82.0906C56.8127 82.3334 57.0286 82.6031 57.0286 82.8999C57.1095 84.033 54.4927 85.139 51.1744 85.4088C47.8562 85.6786 45.0775 84.9502 44.9966 83.8171C44.9696 83.5204 45.1584 83.1967 45.4822 82.9269C45.5091 82.8999 45.5631 82.8729 45.5901 82.819" stroke="#3AA194" stroke-linecap="round" stroke-linejoin="round"/>
<path d="M56.1113 84.1409C56.462 84.3567 56.6509 84.6265 56.6778 84.8962C56.7588 85.9484 54.3038 87.0005 51.1744 87.2433C48.045 87.4861 45.4552 86.8116 45.4012 85.7595C45.3742 85.4628 45.5361 85.193 45.8598 84.9232C45.8868 84.8962 45.9408 84.8693 45.9677 84.8423" stroke="#3AA194" stroke-linecap="round" stroke-linejoin="round"/>
<path d="M55.5987 86.299C55.8955 86.4878 56.0843 86.7306 56.0843 87.0004C56.1653 87.9716 54.034 88.9158 51.3363 89.1046C48.6385 89.3204 46.3994 88.7 46.3185 87.7288C46.2915 87.459 46.4264 87.2162 46.6961 86.9734C46.7231 86.9464 46.7501 86.9194 46.804 86.8925" stroke="#3AA194" stroke-linecap="round" stroke-linejoin="round"/>
<path d="M54.5735 88.6191C54.7894 88.781 54.9242 88.9429 54.9242 89.1317C54.9782 89.8601 53.4135 90.5615 51.4172 90.7234C49.4208 90.8853 47.7752 90.3997 47.7212 89.6982C47.6943 89.5094 47.8022 89.3206 48.018 89.1317C48.045 89.1047 48.0719 89.0778 48.0989 89.0778" stroke="#3AA194" stroke-linecap="round" stroke-linejoin="round"/>
<path d="M57.568 64.3394C56.462 65.2566 54.007 65.985 51.1204 66.2278C47.1007 66.5245 43.7555 65.6882 43.6746 64.3663C43.6476 64.1775 43.7016 64.0156 43.8095 63.8268" stroke="#3AA194" stroke-linecap="round" stroke-linejoin="round"/>
<path d="M49.3398 90.6964L49.6636 92.0992C49.6636 92.0992 53.3865 92.5579 53.4404 90.3457" stroke="#3AA194" stroke-linecap="round" stroke-linejoin="round"/>
<path d="M43.4049 38.2251C42.6765 38.6028 42.2719 39.0344 42.2719 39.493C42.2719 40.8959 46.1296 42.0559 50.8777 42.0559C55.6257 42.0559 59.4835 40.9229 59.4835 39.493C59.4835 39.0344 59.0789 38.6028 58.3505 38.2251" stroke="#3AA194" stroke-linecap="round" stroke-linejoin="round"/>
<path d="M44.349 32.5328C44.349 33.6119 47.2626 34.4752 50.8776 34.4752C54.4926 34.4752 57.3792 33.585 57.3792 32.5328" stroke="#3AA194" stroke-width="0.5" stroke-miterlimit="10"/>
<path d="M58.5933 57.9996C56.9207 58.6741 54.142 59.1597 50.9856 59.2946C47.7483 59.4025 44.8887 59.0787 43.1891 58.5122" stroke="#3AA194" stroke-width="0.5" stroke-miterlimit="10"/>
<path d="M58.5933 59.2406C56.9207 59.915 54.142 60.4006 50.9856 60.5355C47.7483 60.6434 44.8887 60.3197 43.1891 59.7532" stroke="#3AA194" stroke-width="0.5" stroke-miterlimit="10"/>
<path d="M58.5933 60.4814C56.9207 61.1559 54.142 61.6415 50.9856 61.7764C47.7483 61.8843 44.8887 61.5605 43.1891 60.994" stroke="#3AA194" stroke-width="0.5" stroke-miterlimit="10"/>
<path d="M58.5933 61.7225C56.9207 62.397 54.142 62.8826 50.9856 63.0175C47.7483 63.1254 44.8887 62.8016 43.1891 62.2351" stroke="#3AA194" stroke-width="0.5" stroke-miterlimit="10"/>
<path d="M58.5932 62.9365C56.9205 63.611 54.1419 64.0966 50.9855 64.2314C47.937 64.3394 45.2393 64.0426 43.5127 63.53" stroke="#3AA194" stroke-width="0.5" stroke-miterlimit="10"/>
<path d="M60.158 51.9836C59.5105 53.1437 55.6527 54.1688 50.9856 54.3307C46.7501 54.4656 43.1351 53.8721 41.9481 52.9279" stroke="#3AA194" stroke-width="0.5" stroke-miterlimit="10"/>
<path d="M60.4546 50.4728C59.7802 51.6328 55.8145 52.9008 51.0125 53.0896C46.1835 53.2784 42.8383 52.3882 41.5973 51.444" stroke="#3AA194" stroke-width="0.5" stroke-miterlimit="10"/>
<path d="M60.131 51.9297C60.1849 51.8488 60.2119 51.7408 60.2119 51.6599L60.131 51.9297Z" stroke="#3AA194" stroke-width="0.5" stroke-miterlimit="10"/>
<path d="M59.5104 53.8451C58.1076 54.7354 54.8163 55.4637 50.9855 55.5717C47.2626 55.7065 44.0522 55.2479 42.5145 54.4926" stroke="#3AA194" stroke-width="0.5" stroke-miterlimit="10"/>
<path d="M58.9708 55.3557C57.3522 56.1111 54.3846 56.6776 50.9585 56.8125C47.6133 56.9204 44.6727 56.5697 43.0001 55.9492" stroke="#3AA194" stroke-width="0.5" stroke-miterlimit="10"/>
<path d="M58.5933 56.7587C56.9207 57.4331 54.142 57.9187 50.9856 58.0536C47.7483 58.1615 44.8887 57.8378 43.1891 57.2712" stroke="#3AA194" stroke-width="0.5" stroke-miterlimit="10"/>
<path d="M57.2173 30.0509V31.8584C57.568 32.0742 57.541 32.4789 57.541 32.4789V35.7971C57.8917 36.0129 58.0806 36.4176 58.0806 36.4176L58.3234 38.2521C59.6453 38.4949 61.0211 40.4103 61.0211 40.4103V49.4747L58.5662 56.4889V63.1793C58.5662 63.1793 57.2982 65.6883 50.8506 65.6883C44.403 65.6883 43.135 63.1793 43.135 63.1793V56.4889L40.6801 49.4747V40.3833C40.6801 40.3833 42.0559 38.4679 43.3778 38.2251L43.6206 36.3906C43.6206 36.3906 43.8095 36.0129 44.1602 35.7701V32.4519C44.1602 32.4519 44.1332 32.0742 44.4839 31.8314V30.0239" stroke="#3AA194" stroke-linecap="round" stroke-linejoin="round"/>
<path d="M52.3613 34.3943C52.8469 35.0148 53.5483 37.4428 53.7642 38.306C53.8181 38.4679 53.7102 38.6298 53.5483 38.6298C53.0627 38.6837 52.0376 38.7916 50.8776 38.7916C49.7175 38.7916 48.6924 38.6837 48.2068 38.6298C48.0449 38.6028 47.937 38.4409 47.991 38.306C48.2338 37.4428 48.9082 35.0148 49.3938 34.3943" stroke="#3AA194" stroke-width="0.5" stroke-miterlimit="10"/>
<path d="M47.9911 38.5487H53.7643" stroke="#3AA194" stroke-width="0.5" stroke-miterlimit="10"/>
<path d="M78.3948 38.0901H86.6769" stroke="#3AA194" stroke-width="0.5" stroke-miterlimit="10"/>
<path d="M89.1318 66.5515C89.5634 66.8213 89.8332 67.145 89.8602 67.4957C89.9681 68.8176 86.7847 70.1665 82.7651 70.4633C78.7454 70.76 75.4272 69.9237 75.3193 68.6018C75.2923 68.2511 75.5081 67.8734 75.9128 67.5497C75.9667 67.5227 75.9937 67.4688 76.0477 67.4418" stroke="#3AA194" stroke-linecap="round" stroke-linejoin="round"/>
<path d="M89.1318 64.4203C89.5634 64.6901 89.8332 65.0138 89.8602 65.3645C89.9681 66.6864 86.7847 68.0353 82.7651 68.332C78.7454 68.6288 75.4272 67.7925 75.3193 66.4706C75.2923 66.1199 75.5081 65.7422 75.9128 65.4185C75.9667 65.3915 75.9937 65.3375 76.0477 65.3105" stroke="#3AA194" stroke-linecap="round" stroke-linejoin="round"/>
<path d="M89.1318 70.8409C89.5634 71.1107 89.8332 71.4344 89.8602 71.7852C89.9681 73.1071 86.7847 74.4559 82.7651 74.7527C78.7454 75.0494 75.4272 74.2131 75.3193 72.8912C75.2923 72.5405 75.5081 72.1628 75.9128 71.8391C75.9667 71.8121 75.9937 71.7582 76.0477 71.7312" stroke="#3AA194" stroke-linecap="round" stroke-linejoin="round"/>
<path d="M89.1318 68.7097C89.5634 68.9795 89.8332 69.3032 89.8602 69.6539C89.9681 70.9758 86.7847 72.3247 82.7651 72.6215C78.7454 72.9182 75.4272 72.0819 75.3193 70.76C75.2923 70.4093 75.5081 70.0316 75.9128 69.7079C75.9667 69.6809 75.9937 69.627 76.0477 69.6" stroke="#3AA194" stroke-linecap="round" stroke-linejoin="round"/>
<path d="M89.1048 72.9991C89.5365 73.2689 89.8062 73.5927 89.8332 73.9434C89.9411 75.2653 86.8117 76.6141 82.846 76.9109C78.8803 77.2076 75.5891 76.3713 75.4811 75.0494C75.4542 74.6987 75.67 74.321 76.0477 73.9973C76.1016 73.9703 76.1286 73.9164 76.1826 73.8894" stroke="#3AA194" stroke-linecap="round" stroke-linejoin="round"/>
<path d="M88.916 75.2922C89.3476 75.562 89.5904 75.8857 89.6174 76.2365C89.7253 77.5584 86.6769 78.8803 82.8191 79.177C78.9613 79.4738 75.7509 78.6375 75.67 77.2886C75.643 76.9379 75.8319 76.5602 76.2365 76.2365C76.2905 76.2095 76.3175 76.1555 76.3714 76.1285" stroke="#3AA194" stroke-linecap="round" stroke-linejoin="round"/>
<path d="M88.7272 77.6123C89.1318 77.8821 89.3746 78.1788 89.4016 78.5026C89.5095 79.7705 86.5689 81.0115 82.873 81.2813C79.1771 81.578 76.0747 80.7687 75.9937 79.5007C75.9668 79.15 76.1556 78.8263 76.5333 78.5026C76.5873 78.4756 76.6142 78.4216 76.6682 78.3947" stroke="#3AA194" stroke-linecap="round" stroke-linejoin="round"/>
<path d="M88.4304 79.8514C88.8081 80.0942 89.0509 80.391 89.0779 80.7147C89.1588 81.9557 86.4071 83.1697 82.9 83.4125C79.3929 83.6553 76.4793 82.8999 76.3714 81.6859C76.3445 81.3622 76.5333 81.0385 76.884 80.7147C76.938 80.6877 76.9649 80.6338 77.0189 80.6068" stroke="#3AA194" stroke-linecap="round" stroke-linejoin="round"/>
<path d="M88.0797 82.0906C88.4574 82.3334 88.6732 82.6031 88.6732 82.8999C88.7541 84.033 86.1373 85.139 82.8191 85.4088C79.5008 85.6786 76.7222 84.9502 76.6412 83.8171C76.6142 83.5204 76.8031 83.1967 77.1268 82.9269C77.1538 82.8999 77.2078 82.8729 77.2347 82.819" stroke="#3AA194" stroke-linecap="round" stroke-linejoin="round"/>
<path d="M87.7829 84.1409C88.1336 84.3567 88.3225 84.6265 88.3495 84.8962C88.4304 85.9484 85.9754 87.0005 82.846 87.2433C79.7166 87.4861 77.1268 86.8116 77.0728 85.7595C77.0459 85.4628 77.2077 85.193 77.5315 84.9232C77.5584 84.8962 77.6124 84.8693 77.6394 84.8423" stroke="#3AA194" stroke-linecap="round" stroke-linejoin="round"/>
<path d="M87.2434 86.299C87.5401 86.4878 87.729 86.7306 87.729 87.0004C87.8099 87.9716 85.6787 88.9158 82.9809 89.1046C80.2832 89.3204 78.044 88.7 77.9631 87.7288C77.9361 87.459 78.071 87.2162 78.3408 86.9734C78.3678 86.9464 78.3947 86.9194 78.4487 86.8925" stroke="#3AA194" stroke-linecap="round" stroke-linejoin="round"/>
<path d="M86.2453 88.6191C86.4611 88.781 86.596 88.9429 86.596 89.1317C86.65 89.8601 85.0853 90.5615 83.0889 90.7234C81.0926 90.8853 79.4469 90.3997 79.393 89.6982C79.366 89.5094 79.4739 89.3206 79.6897 89.1317C79.7167 89.1047 79.7437 89.0778 79.7707 89.0778" stroke="#3AA194" stroke-linecap="round" stroke-linejoin="round"/>
<path d="M89.2398 64.3394C88.1337 65.2566 85.6788 65.985 82.7922 66.2278C78.7725 66.5245 75.4543 65.6882 75.3464 64.3663C75.3194 64.1775 75.3733 64.0156 75.4812 63.8268" stroke="#3AA194" stroke-linecap="round" stroke-linejoin="round"/>
<path d="M80.9846 90.6964L81.3083 92.0992C81.3083 92.0992 85.0313 92.5579 85.0852 90.3457" stroke="#3AA194" stroke-linecap="round" stroke-linejoin="round"/>
<path d="M75.4272 37.8743C74.1863 38.4678 73.377 39.2231 73.377 39.7087C73.377 40.1943 73.6426 40.548 74.425 40.9527" stroke="#3AA194" stroke-linecap="round" stroke-linejoin="round"/>
<path d="M90.2649 57.9996C88.5923 58.6741 85.8136 59.1597 82.6572 59.2946C79.4199 59.4025 76.5603 59.0787 74.8607 58.5122" stroke="#3AA194" stroke-width="0.5" stroke-miterlimit="10"/>
<path d="M90.2649 59.2406C88.5923 59.915 85.8136 60.4006 82.6572 60.5355C79.4199 60.6434 76.5603 60.3197 74.8607 59.7532" stroke="#3AA194" stroke-width="0.5" stroke-miterlimit="10"/>
<path d="M90.2649 60.4814C88.5923 61.1559 85.8136 61.6415 82.6572 61.7764C79.4199 61.8843 76.5603 61.5605 74.8607 60.994" stroke="#3AA194" stroke-width="0.5" stroke-miterlimit="10"/>
<path d="M90.2649 61.7225C88.5923 62.397 85.8136 62.8826 82.6572 63.0175C79.4199 63.1254 76.5603 62.8016 74.8607 62.2351" stroke="#3AA194" stroke-width="0.5" stroke-miterlimit="10"/>
<path d="M90.2649 62.9365C88.5923 63.611 85.8136 64.0966 82.6572 64.2314C79.6088 64.3394 76.911 64.0426 75.1844 63.53" stroke="#3AA194" stroke-width="0.5" stroke-miterlimit="10"/>
<path d="M91.8026 51.9836C91.1552 53.1437 87.2974 54.1688 82.6303 54.3307C78.3948 54.4656 74.7798 53.8721 73.5928 52.9279" stroke="#3AA194" stroke-width="0.5" stroke-miterlimit="10"/>
<path d="M92.0994 50.4728C91.4249 51.6328 87.4592 52.9008 82.6572 53.0896C77.8282 53.2784 74.483 52.3882 73.2421 51.444" stroke="#3AA194" stroke-width="0.5" stroke-miterlimit="10"/>
<path d="M91.8025 51.9297C91.8564 51.8488 91.8834 51.7408 91.8834 51.6599L91.8025 51.9297Z" stroke="#3AA194" stroke-width="0.5" stroke-miterlimit="10"/>
<path d="M91.155 53.8451C89.7522 54.7354 86.4609 55.4637 82.6301 55.5717C78.9072 55.7065 75.6969 55.2479 74.1592 54.4926" stroke="#3AA194" stroke-width="0.5" stroke-miterlimit="10"/>
<path d="M90.6426 55.3557C89.0239 56.1111 86.0564 56.6776 82.6303 56.8125C79.285 56.9204 76.3445 56.5697 74.6719 55.9492" stroke="#3AA194" stroke-width="0.5" stroke-miterlimit="10"/>
<path d="M90.2649 56.7587C88.5923 57.4331 85.8136 57.9187 82.6572 58.0536C79.4199 58.1615 76.5603 57.8378 74.8607 57.2712" stroke="#3AA194" stroke-width="0.5" stroke-miterlimit="10"/>
<path d="M82.5223 65.6613C76.0747 65.6613 74.8068 63.1524 74.8068 63.1524V56.4619L72.3518 49.4478V40.3833C72.3518 40.3833 73.296 39.1693 74.2942 38.5219" stroke="#3AA194" stroke-linecap="round" stroke-linejoin="round"/>
<path d="M75.9128 40.1135C74.9146 40.6801 74.6448 41.1117 74.6448 41.1117C74.2401 48.8273 75.9128 52.4692 75.9128 52.4692V52.5232" stroke="#3AA194" stroke-width="0.5" stroke-linejoin="round"/>
<path d="M82.5493 41.5973C79.9055 41.5973 76.4524 41.2466 75.5891 39.7089V35.6892C75.5891 34.4752 76.3445 26.6787 76.3445 26.6787" stroke="#3AA194" stroke-linecap="round" stroke-linejoin="round"/>
<path d="M82.5493 27.4071C84.3819 27.4071 85.8676 27.0206 85.8676 26.5438C85.8676 26.067 84.3819 25.6805 82.5493 25.6805C80.7167 25.6805 79.2311 26.067 79.2311 26.5438C79.2311 27.0206 80.7167 27.4071 82.5493 27.4071Z" stroke="#3AA194" stroke-linecap="round" stroke-linejoin="round"/>
<path d="M82.5493 38.5487C78.9613 38.5487 77.8282 37.8743 77.8282 37.8743V37.3347L79.1232 28.0005" stroke="#3AA194" stroke-width="0.5" stroke-miterlimit="10"/>
<path d="M89.6444 37.8743C90.8854 38.4678 91.6947 39.2231 91.6947 39.7087C91.6947 40.1943 91.4427 40.5679 90.6603 40.9725" stroke="#3AA194" stroke-linecap="round" stroke-linejoin="round"/>
<path d="M82.5493 65.6613C88.997 65.6613 90.2649 63.1524 90.2649 63.1524V56.4619L92.7199 49.4478V40.3833C92.7199 40.3833 91.7756 39.1693 90.7775 38.5219" stroke="#3AA194" stroke-linecap="round" stroke-linejoin="round"/>
<path d="M89.3477 52.0645V51.9835C89.7793 50.7695 90.7505 47.2085 90.4268 41.0846C90.4268 41.0846 90.157 40.653 89.1588 40.0864" stroke="#3AA194" stroke-width="0.5" stroke-linejoin="round"/>
<path d="M82.5223 41.5973C85.1661 41.5973 88.6193 41.2466 89.4825 39.7089V35.6892C89.4825 34.4752 88.7272 26.6787 88.7272 26.6787" stroke="#3AA194" stroke-linecap="round" stroke-linejoin="round"/>
<path d="M82.5223 38.5487C86.1104 38.5487 87.2434 37.8743 87.2434 37.8743V37.3347L85.9485 28.0005" stroke="#3AA194" stroke-width="0.5" stroke-miterlimit="10"/>
<path d="M82.6572 28.0276H79.0962C77.4236 27.7308 76.3445 27.2183 76.3445 26.6787C76.3445 25.7885 79.1232 25.0601 82.5223 25.0601" stroke="#3AA194" stroke-linecap="round" stroke-linejoin="round"/>
<path d="M82.5223 28.0276H86.0834C87.756 27.7308 88.8351 27.2183 88.8351 26.6787C88.8351 25.7885 86.0564 25.0601 82.6572 25.0601" stroke="#3AA194" stroke-linecap="round" stroke-linejoin="round"/>
<path d="M82.6572 45.8597C80.1213 45.8597 78.179 45.2393 78.071 44.5378L77.4506 41.0577" stroke="#3AA194" stroke-width="0.5" stroke-linecap="round" stroke-linejoin="round"/>
<path d="M82.6572 50.2571C81.5242 50.2571 81.2814 49.9873 80.6879 49.9064C80.0944 49.8254 78.4218 49.9603 78.4218 48.6384V44.9965" stroke="#3AA194" stroke-width="0.5" stroke-linecap="round" stroke-linejoin="round"/>
<path d="M82.4144 45.8597C84.9503 45.8597 86.8927 45.2393 87.0006 44.5378L87.6211 41.0577" stroke="#3AA194" stroke-width="0.5" stroke-linecap="round" stroke-linejoin="round"/>
<path d="M82.4144 50.2571C83.5475 50.2571 83.7903 49.9873 84.3838 49.9064C84.9773 49.8254 86.6499 49.9603 86.6499 48.6384V44.9965" stroke="#3AA194" stroke-width="0.5" stroke-linecap="round" stroke-linejoin="round"/>
<path d="M80.526 49.9873L79.9865 50.4189V50.7157C79.9865 50.7157 83.0889 52.1995 85.4629 50.0413" stroke="#3AA194" stroke-width="0.5" stroke-miterlimit="10"/>
<path d="M80.6068 51.0394L80.0403 51.7408C80.0403 51.7408 82.5492 53.0897 85.3818 51.3362L84.7614 50.4999" stroke="#3AA194" stroke-width="0.5" stroke-miterlimit="10"/>
</g>
<g clip-path="url(#clip1_6875_25051)">
<path d="M24.9792 66.8213C25.4108 67.0911 25.6806 67.4148 25.7076 67.7925C25.8155 69.1144 22.6321 70.4363 18.6125 70.76C14.5928 71.0837 11.2746 70.2205 11.1667 68.8986C11.1397 68.5209 11.3555 68.1702 11.7602 67.8195L11.8951 67.7115" stroke="#3AA194" stroke-linecap="round" stroke-linejoin="round"/>
<path d="M24.9792 64.717C25.4108 64.9868 25.6806 65.3105 25.7076 65.6613C25.8155 66.9832 22.6321 68.332 18.6125 68.6288C14.5928 68.9255 11.2746 68.0892 11.1667 66.7673C11.1397 66.4166 11.3555 66.0389 11.7602 65.7152C12.1649 65.3915 11.8411 65.6343 11.8951 65.5803" stroke="#3AA194" stroke-linecap="round" stroke-linejoin="round"/>
<path d="M24.9792 71.1107C25.4108 71.3805 25.6806 71.7042 25.7076 72.0549C25.8155 73.4038 22.6321 74.7257 18.6125 75.0225C14.5928 75.3192 11.2746 74.5099 11.1667 73.161C11.1397 72.8103 11.3555 72.4596 11.7602 72.1089L11.8951 72.001" stroke="#3AA194" stroke-linecap="round" stroke-linejoin="round"/>
<path d="M24.9792 68.9795C25.4108 69.2493 25.6806 69.573 25.7076 69.9507C25.8155 71.2726 22.6321 72.5945 18.6125 72.9182C14.5928 73.2419 11.2746 72.3787 11.1667 71.0568C11.1397 70.6791 11.3555 70.3284 11.7602 69.9777L11.8951 69.8698" stroke="#3AA194" stroke-linecap="round" stroke-linejoin="round"/>
<path d="M24.9522 73.2689C25.3839 73.5387 25.6267 73.8624 25.6536 74.2131C25.7615 75.562 22.6321 76.8839 18.6664 77.1807C14.7007 77.4774 11.4095 76.6411 11.3016 75.3192C11.2746 74.9685 11.4904 74.5908 11.8951 74.2671L12.03 74.1322" stroke="#3AA194" stroke-linecap="round" stroke-linejoin="round"/>
<path d="M24.7634 75.5891C25.195 75.8589 25.4378 76.1826 25.4648 76.5333C25.5727 77.8822 22.5242 79.1771 18.6934 79.4739C14.8626 79.7706 11.6253 78.9343 11.5174 77.5854C11.4904 77.2347 11.7062 76.884 12.0839 76.5333L12.2188 76.4254" stroke="#3AA194" stroke-linecap="round" stroke-linejoin="round"/>
<path d="M24.5745 77.9091C24.9792 78.1788 25.222 78.4756 25.249 78.7993C25.3299 80.0673 22.4163 81.3082 18.7204 81.605C15.0245 81.9017 11.9221 81.0924 11.8142 79.8245C11.7872 79.5007 12.003 79.15 12.3537 78.8263L12.4886 78.7184" stroke="#3AA194" stroke-linecap="round" stroke-linejoin="round"/>
<path d="M24.2777 80.1212C24.4418 80.2129 24.5829 80.3407 24.6904 80.4949C24.7979 80.6492 24.869 80.8258 24.8982 81.0115C25.0061 82.2524 22.2274 83.4395 18.7203 83.7092C15.2133 83.979 12.2997 83.1967 12.1918 81.9827C12.1927 81.7915 12.2398 81.6033 12.329 81.4342C12.4182 81.2651 12.547 81.1201 12.7043 81.0115L12.8392 80.9036" stroke="#3AA194" stroke-linecap="round" stroke-linejoin="round"/>
<path d="M23.927 82.3604C24.0841 82.4407 24.2213 82.555 24.3286 82.695C24.436 82.835 24.5107 82.9971 24.5475 83.1697C24.6285 84.3027 22.0116 85.4358 18.6664 85.6786C15.3212 85.9214 12.5965 85.22 12.5155 84.0869C12.5143 83.9125 12.5554 83.7404 12.6353 83.5854C12.7152 83.4303 12.8314 83.2969 12.9741 83.1967L13.109 83.0887" stroke="#3AA194" stroke-linecap="round" stroke-linejoin="round"/>
<path d="M23.6304 84.4106C23.7784 84.4819 23.9072 84.5878 24.0058 84.7192C24.1044 84.8507 24.1699 85.0039 24.1969 85.166C24.2778 86.2451 21.8229 87.2703 18.6935 87.5131C15.5641 87.7559 13.0012 87.0814 12.9203 86.0293C12.9232 85.8632 12.9665 85.7002 13.0464 85.5546C13.1263 85.4089 13.2404 85.2848 13.3789 85.193L13.4868 85.1121" stroke="#3AA194" stroke-linecap="round" stroke-linejoin="round"/>
<path d="M23.0908 86.569C23.2249 86.6381 23.3409 86.7374 23.4299 86.8592C23.5189 86.9809 23.5783 87.1217 23.6034 87.2704C23.6574 88.2146 21.5531 89.1588 18.8554 89.3746C16.1576 89.5905 13.8915 88.97 13.8375 87.9988C13.8375 87.8522 13.8717 87.7076 13.9372 87.5765C14.0028 87.4454 14.0979 87.3314 14.2152 87.2434L14.3231 87.1625" stroke="#3AA194" stroke-linecap="round" stroke-linejoin="round"/>
<path d="M22.0925 88.889C22.3084 89.0509 22.4432 89.2128 22.4432 89.4016C22.4972 90.13 20.9325 90.8314 18.9362 90.9933C16.9398 91.1552 15.2942 90.6965 15.2402 89.9681C15.2413 89.8569 15.2687 89.7476 15.3203 89.6491C15.3719 89.5506 15.4462 89.4658 15.537 89.4016L15.5909 89.3207" stroke="#3AA194" stroke-linecap="round" stroke-linejoin="round"/>
<path d="M25.0871 64.6091C23.981 65.5264 21.526 66.2817 18.6125 66.4976C14.6198 66.7943 11.2746 65.958 11.1667 64.6361C11.1564 64.4468 11.2034 64.2588 11.3015 64.0966" stroke="#3AA194" stroke-linecap="round" stroke-linejoin="round"/>
<path d="M16.832 90.9662L17.1558 92.396C17.1558 92.396 20.8787 92.8276 20.9326 90.6155" stroke="#3AA194" stroke-linecap="round" stroke-linejoin="round"/>
<path d="M26.1123 58.2694C24.4397 58.9708 21.661 59.4564 18.4777 59.5643C15.2943 59.6722 12.3807 59.3485 10.6812 58.782" stroke="#3AA194" stroke-width="0.5" stroke-miterlimit="10"/>
<path d="M26.1123 59.5104C24.4397 60.1848 21.661 60.6974 18.4777 60.8053C15.2943 60.9132 12.3807 60.5895 10.6812 60.023" stroke="#3AA194" stroke-width="0.5" stroke-miterlimit="10"/>
<path d="M26.1123 60.7513C24.4397 61.4258 21.661 61.9384 18.4777 62.0463C15.2943 62.1542 12.3807 61.8304 10.6812 61.2369" stroke="#3AA194" stroke-width="0.5" stroke-miterlimit="10"/>
<path d="M26.1123 61.9924C24.4397 62.6669 21.661 63.1794 18.4777 63.2874C15.2943 63.3953 12.3807 63.0715 10.6812 62.478" stroke="#3AA194" stroke-width="0.5" stroke-miterlimit="10"/>
<path d="M26.1123 63.2333C24.4397 63.9077 21.661 64.3933 18.4777 64.5012C15.2943 64.6091 12.7314 64.3394 11.0049 63.8268" stroke="#3AA194" stroke-width="0.5" stroke-miterlimit="10"/>
<path d="M27.65 52.2804C27.0026 53.4404 23.1718 54.4656 18.4777 54.6274C14.2422 54.7623 10.6542 54.1688 9.46716 53.2246" stroke="#3AA194" stroke-width="0.5" stroke-miterlimit="10"/>
<path d="M27.9738 50.7697C27.2723 51.9297 23.3336 53.1976 18.5316 53.3865C13.7296 53.5753 10.3304 52.6851 9.11646 51.7408" stroke="#3AA194" stroke-width="0.5" stroke-miterlimit="10"/>
<path d="M27.65 52.2264C27.7046 52.1472 27.7329 52.0529 27.731 51.9567L27.65 52.2264Z" stroke="#3AA194" stroke-width="0.5" stroke-miterlimit="10"/>
<path d="M27.0296 54.115C25.5997 55.0322 22.3355 55.7336 18.4777 55.8685C14.6199 56.0034 11.5444 55.5448 10.0067 54.7894" stroke="#3AA194" stroke-width="0.5" stroke-miterlimit="10"/>
<path d="M26.4899 55.6527C24.8712 56.4081 21.9037 56.9746 18.4775 57.0825C15.0514 57.1904 12.1918 56.8667 10.5192 56.2462" stroke="#3AA194" stroke-width="0.5" stroke-miterlimit="10"/>
<path d="M26.1123 57.0554C24.4397 57.7299 21.661 58.2155 18.4777 58.3234C15.2943 58.4313 12.3807 58.1075 10.6812 57.541" stroke="#3AA194" stroke-width="0.5" stroke-miterlimit="10"/>
<path d="M25.7885 38.4949C27.1104 38.7377 28.5402 40.6801 28.5402 40.6801V49.7445L26.0852 56.7587V63.4491C26.0852 63.4491 24.8173 65.931 18.3696 65.931C11.922 65.931 10.6541 63.4491 10.6541 63.4491V56.7587L8.22607 49.7445V40.6801C8.22607 40.6801 9.46704 39.1963 11.0048 38.4949" stroke="#3AA194" stroke-linecap="round" stroke-linejoin="round"/>
<path d="M18.3967 43.1621C23.4178 43.1621 27.4882 41.8697 27.4882 40.2755C27.4882 38.6813 23.4178 37.3889 18.3967 37.3889C13.3757 37.3889 9.3053 38.6813 9.3053 40.2755C9.3053 41.8697 13.3757 43.1621 18.3967 43.1621Z" stroke="#3AA194" stroke-linecap="round" stroke-linejoin="round"/>
<path d="M18.3696 41.5703C16.9938 41.5703 16.1035 41.8671 15.6449 41.8131C15.1863 41.7592 14.8895 41.1926 14.5118 40.9768C14.1342 40.761 12.8932 40.8419 12.8932 40.2754C12.8932 39.7089 14.1072 39.6549 14.377 39.4661C14.6467 39.2772 15.1863 38.7377 15.6449 38.7107C16.1035 38.6837 17.3984 38.8995 18.3696 38.8995" stroke="#3AA194" stroke-linecap="round" stroke-linejoin="round"/>
<path d="M18.3698 35.8781C15.9688 35.8781 14.7548 35.4194 14.3231 35.1497C13.8915 34.8799 13.5408 34.5022 13.5408 33.504V25.4108" stroke="#3AA194" stroke-linecap="round" stroke-linejoin="round"/>
<path d="M18.3696 25.6266C16.67 25.6266 11.7062 25.5726 10.5192 24.2507V19.7994C10.5192 19.7994 11.2745 12.3536 11.4094 11.1397C11.5443 9.92566 12.5155 8.38794 18.3696 8.38794" stroke="#3AA194" stroke-linecap="round" stroke-linejoin="round"/>
<path d="M18.5586 41.5703C19.9344 41.5703 20.8247 41.8671 21.3103 41.8131C21.7959 41.7592 22.0387 41.1926 22.4164 40.9768C22.7941 40.761 24.035 40.8419 24.035 40.2754C24.035 39.7089 22.848 39.6549 22.5782 39.4661C22.3085 39.2772 21.7419 38.7377 21.2833 38.7107C20.8247 38.6837 19.5298 38.8995 18.5586 38.8995" stroke="#3AA194" stroke-linecap="round" stroke-linejoin="round"/>
<path d="M18.5586 35.8781C20.9866 35.8781 22.2006 35.4194 22.6052 35.1497C23.0099 34.8799 23.3876 34.5022 23.3876 33.504V25.4108" stroke="#3AA194" stroke-linecap="round" stroke-linejoin="round"/>
<path d="M18.5586 25.6266C20.2852 25.6266 25.2221 25.5726 26.436 24.2507V19.7994C26.436 19.7994 25.6537 12.3536 25.5188 11.1397C25.3839 9.92566 24.4127 8.38794 18.5586 8.38794" stroke="#3AA194" stroke-linecap="round" stroke-linejoin="round"/>
</g>
<defs>
<clipPath id="clip0_6875_25051">
<rect width="53.1458" height="68.2532" fill="white" transform="translate(40.1136 24.4666)"/>
</clipPath>
<clipPath id="clip1_6875_25051">
<rect width="21.0695" height="84.8174" fill="white" transform="translate(7.84839 8.01025)"/>
</clipPath>
</defs>
</svg>
