<svg width="101" height="101" viewBox="0 0 101 101" fill="none" xmlns="http://www.w3.org/2000/svg">
<g id="tabler:affiliate">
<path id="Vector" d="M24.9593 29.1877L30.3249 47.0689M53.921 70.6734L71.8107 76.0391M49.1656 51.8327L73.4014 27.5969M16.833 23.1445C16.833 23.9735 16.9963 24.7944 17.3135 25.5602C17.6308 26.3261 18.0957 27.022 18.6819 27.6081C19.2681 28.1943 19.964 28.6593 20.7298 28.9765C21.4957 29.2938 22.3165 29.457 23.1455 29.457C23.9745 29.457 24.7953 29.2938 25.5612 28.9765C26.3271 28.6593 27.0229 28.1943 27.6091 27.6081C28.1953 27.022 28.6603 26.3261 28.9775 25.5602C29.2947 24.7944 29.458 23.9735 29.458 23.1445C29.458 22.3156 29.2947 21.4947 28.9775 20.7288C28.6603 19.963 28.1953 19.2671 27.6091 18.6809C27.0229 18.0947 26.3271 17.6298 25.5612 17.3125C24.7953 16.9953 23.9745 16.832 23.1455 16.832C22.3165 16.832 21.4957 16.9953 20.7298 17.3125C19.964 17.6298 19.2681 18.0947 18.6819 18.6809C18.0957 19.2671 17.6308 19.963 17.3135 20.7288C16.9963 21.4947 16.833 22.3156 16.833 23.1445ZM71.5413 23.1445C71.5413 24.8187 72.2064 26.4243 73.3902 27.6081C74.5741 28.792 76.1797 29.457 77.8538 29.457C79.528 29.457 81.1336 28.792 82.3174 27.6081C83.5013 26.4243 84.1663 24.8187 84.1663 23.1445C84.1663 21.4704 83.5013 19.8647 82.3174 18.6809C81.1336 17.4971 79.528 16.832 77.8538 16.832C76.1797 16.832 74.5741 17.4971 73.3902 18.6809C72.2064 19.8647 71.5413 21.4704 71.5413 23.1445ZM71.5413 77.8529C71.5413 79.527 72.2064 81.1326 73.3902 82.3165C74.5741 83.5003 76.1797 84.1654 77.8538 84.1654C79.528 84.1654 81.1336 83.5003 82.3174 82.3165C83.5013 81.1326 84.1663 79.527 84.1663 77.8529C84.1663 76.1787 83.5013 74.5731 82.3174 73.3893C81.1336 72.2054 79.528 71.5404 77.8538 71.5404C76.1797 71.5404 74.5741 72.2054 73.3902 73.3893C72.2064 74.5731 71.5413 76.1787 71.5413 77.8529ZM16.833 65.2279C16.833 70.2504 18.8282 75.0672 22.3797 78.6187C25.9311 82.1702 30.748 84.1654 35.7705 84.1654C40.793 84.1654 45.6099 82.1702 49.1613 78.6187C52.7128 75.0672 54.708 70.2504 54.708 65.2279C54.708 60.2053 52.7128 55.3885 49.1613 51.837C45.6099 48.2856 40.793 46.2904 35.7705 46.2904C30.748 46.2904 25.9311 48.2856 22.3797 51.837C18.8282 55.3885 16.833 60.2053 16.833 65.2279Z" stroke="#3AA194" stroke-width="2" stroke-linecap="round" stroke-linejoin="round"/>
</g>
</svg>
