<svg width="46" height="46" viewBox="0 0 46 46" fill="none" xmlns="http://www.w3.org/2000/svg">
<g id="brand-spotify">
<path id="Subtract" fill-rule="evenodd" clip-rule="evenodd" d="M5.75 23C5.75 13.4777 13.4777 5.75 23 5.75C32.5223 5.75 40.25 13.4777 40.25 23C40.25 32.5223 32.5223 40.25 23 40.25C13.4777 40.25 5.75 32.5223 5.75 23ZM33.1343 20.9968C33.4473 21.1776 33.6699 21.268 34.0316 21.268C34.8802 21.268 35.6453 20.5933 35.6453 19.6474C35.6453 18.8197 35.2906 18.3884 34.748 18.0754C30.8598 15.8079 25.5388 14.7506 20.4611 14.7506C17.4772 14.7506 14.7366 15.0914 12.2883 15.8079C11.6623 15.9887 11.078 16.5243 11.078 17.4703C11.078 18.3954 11.7805 19.1118 12.6986 19.1118C12.9771 19.1118 13.241 19.0344 13.4662 18.9683C13.511 18.9552 13.5543 18.9425 13.5959 18.9309C19.3274 17.3312 28.1819 18.0406 33.1343 20.9968ZM31.1125 26.326C31.3322 26.4453 31.5583 26.5682 31.8754 26.5682C32.6335 26.5682 33.2178 25.9631 33.2248 25.2119C33.2248 24.6068 33.0022 24.1755 32.4388 23.8416C29.0027 21.7967 24.6415 20.6768 20.1273 20.6768C17.2337 20.6768 15.2583 21.0802 13.3247 21.6228C12.6082 21.8245 12.2465 22.3183 12.2465 23.0626C12.2465 23.8069 12.8517 24.412 13.5959 24.412C13.8261 24.412 13.9849 24.3631 14.1856 24.3012C14.2577 24.279 14.3353 24.2551 14.4236 24.2312C20.1899 22.6661 26.6725 23.7025 31.0198 26.2761C31.0507 26.2924 31.0816 26.3092 31.1125 26.326ZM29.26 30.8807C29.5313 31.0407 29.7122 31.1311 30.0043 31.1311C30.5677 31.1311 31.0615 30.6929 31.0615 30.06C31.0615 29.427 30.8111 29.1836 30.3869 28.9123C25.4205 25.9422 19.5986 25.8309 13.902 27.0899C13.3803 27.2012 12.956 27.542 12.956 28.2585C12.956 28.8219 13.3803 29.3575 14.055 29.3575C14.2134 29.3575 14.4662 29.2888 14.6988 29.2257C14.7624 29.2084 14.8245 29.1915 14.8827 29.1766C19.8699 28.1541 24.9197 28.2654 29.26 30.8807Z" fill="#3AA194"/>
</g>
</svg>
