<svg width="46" height="46" viewBox="0 0 46 46" fill="none" xmlns="http://www.w3.org/2000/svg">
<g id="brand-apple-filled">
<path id="Vector" d="M37.3543 16.2497C37.1358 16.4136 33.2784 18.515 33.2784 23.1877C33.2784 28.5925 38.1867 30.5046 38.3337 30.5519C38.3111 30.6685 37.5539 33.1705 35.7458 35.72C34.1335 37.9635 32.4497 40.2033 29.8882 40.2033C27.3267 40.2033 26.6674 38.7647 23.7104 38.7647C20.8287 38.7647 19.8041 40.2507 17.461 40.2507C15.118 40.2507 13.4831 38.1747 11.6034 35.6253C9.42615 32.6315 7.66699 27.9806 7.66699 23.5665C7.66699 16.4864 12.4284 12.7315 17.1145 12.7315C19.6044 12.7315 21.68 14.3121 23.2433 14.3121C24.7312 14.3121 27.0517 12.6368 29.8844 12.6368C30.958 12.6368 34.8153 12.7315 37.3543 16.2497ZM28.5396 9.63938C29.7111 8.29547 30.5399 6.43075 30.5399 4.56603C30.5399 4.30745 30.5173 4.04522 30.4683 3.83398C28.5622 3.90318 26.2945 5.06135 24.9271 6.59464C23.8535 7.77466 22.8515 9.63938 22.8515 11.5296C22.8515 11.8137 22.9005 12.0978 22.9231 12.1888C23.0436 12.2107 23.2395 12.2361 23.4354 12.2361C25.1456 12.2361 27.2965 11.129 28.5396 9.63938Z" fill="#3AA194"/>
</g>
</svg>
