<svg width="121" height="120" viewBox="0 0 121 120" fill="none" xmlns="http://www.w3.org/2000/svg">
<g id="Icon">
<g id="Vector">
<path d="M15.5 60H20.5ZM60.5 15V20ZM100.5 60H105.5ZM28.5 28L32 31.5ZM92.5 28L89 31.5ZM45.5 80C41.3024 76.8518 38.2017 72.4626 36.6372 67.4542C35.0727 62.4458 35.1237 57.0721 36.7829 52.0943C38.4422 47.1165 41.6256 42.787 45.8822 39.7189C50.1389 36.6509 55.2529 35 60.5 35C65.7471 35 70.8611 36.6509 75.1178 39.7189C79.3744 42.787 82.5578 47.1165 84.2171 52.0943C85.8763 57.0721 85.9273 62.4458 84.3628 67.4542C82.7983 72.4626 79.6976 76.8518 75.5 80C73.5478 81.9324 72.078 84.2972 71.2094 86.9031C70.3407 89.509 70.0977 92.2828 70.5 95C70.5 97.6522 69.4464 100.196 67.5711 102.071C65.6957 103.946 63.1522 105 60.5 105C57.8478 105 55.3043 103.946 53.4289 102.071C51.5536 100.196 50.5 97.6522 50.5 95C50.9023 92.2828 50.6593 89.509 49.7906 86.9031C48.922 84.2972 47.4522 81.9324 45.5 80ZM49 85H72Z" fill="#EAF4F3"/>
<path d="M15.5 60H20.5M60.5 15V20M100.5 60H105.5M28.5 28L32 31.5M92.5 28L89 31.5M49 85H72M45.5 80C41.3024 76.8518 38.2017 72.4626 36.6372 67.4542C35.0727 62.4458 35.1237 57.0721 36.7829 52.0943C38.4422 47.1165 41.6256 42.787 45.8822 39.7189C50.1389 36.6509 55.2529 35 60.5 35C65.7471 35 70.8611 36.6509 75.1178 39.7189C79.3744 42.787 82.5578 47.1165 84.2171 52.0943C85.8763 57.0721 85.9273 62.4458 84.3628 67.4542C82.7983 72.4626 79.6976 76.8518 75.5 80C73.5478 81.9324 72.078 84.2972 71.2094 86.9031C70.3407 89.509 70.0977 92.2828 70.5 95C70.5 97.6522 69.4464 100.196 67.5711 102.071C65.6957 103.946 63.1522 105 60.5 105C57.8478 105 55.3043 103.946 53.4289 102.071C51.5536 100.196 50.5 97.6522 50.5 95C50.9023 92.2828 50.6593 89.509 49.7906 86.9031C48.922 84.2972 47.4522 81.9324 45.5 80Z" stroke="#3AA194" stroke-width="3" stroke-linecap="round" stroke-linejoin="round"/>
</g>
</g>
</svg>
