<svg width="121" height="120" viewBox="0 0 121 120" fill="none" xmlns="http://www.w3.org/2000/svg">
<g id="Icon">
<g id="Vector">
<path d="M20.5 50C20.5 52.6522 21.5536 55.1957 23.4289 57.0711C25.3043 58.9464 27.8478 60 30.5 60C33.1522 60 35.6957 58.9464 37.5711 57.0711C39.4464 55.1957 40.5 52.6522 40.5 50C40.5 47.3478 39.4464 44.8043 37.5711 42.9289C35.6957 41.0536 33.1522 40 30.5 40C27.8478 40 25.3043 41.0536 23.4289 42.9289C21.5536 44.8043 20.5 47.3478 20.5 50ZM30.5 20V40ZM30.5 60V100ZM50.5 80C50.5 82.6522 51.5536 85.1957 53.4289 87.0711C55.3043 88.9464 57.8478 90 60.5 90C63.1522 90 65.6957 88.9464 67.5711 87.0711C69.4464 85.1957 70.5 82.6522 70.5 80C70.5 77.3478 69.4464 74.8043 67.5711 72.9289C65.6957 71.0536 63.1522 70 60.5 70C57.8478 70 55.3043 71.0536 53.4289 72.9289C51.5536 74.8043 50.5 77.3478 50.5 80ZM60.5 20V70ZM60.5 90V100ZM80.5 35C80.5 37.6522 81.5536 40.1957 83.4289 42.0711C85.3043 43.9464 87.8478 45 90.5 45C93.1522 45 95.6957 43.9464 97.5711 42.0711C99.4464 40.1957 100.5 37.6522 100.5 35C100.5 32.3478 99.4464 29.8043 97.5711 27.9289C95.6957 26.0536 93.1522 25 90.5 25C87.8478 25 85.3043 26.0536 83.4289 27.9289C81.5536 29.8043 80.5 32.3478 80.5 35ZM90.5 20V25ZM90.5 45V100Z" fill="#EAF4F3"/>
<path d="M30.5 60C27.8478 60 25.3043 58.9464 23.4289 57.0711C21.5536 55.1957 20.5 52.6522 20.5 50C20.5 47.3478 21.5536 44.8043 23.4289 42.9289C25.3043 41.0536 27.8478 40 30.5 40M30.5 60C33.1522 60 35.6957 58.9464 37.5711 57.0711C39.4464 55.1957 40.5 52.6522 40.5 50C40.5 47.3478 39.4464 44.8043 37.5711 42.9289C35.6957 41.0536 33.1522 40 30.5 40M30.5 60V100M30.5 40V20M60.5 90C57.8478 90 55.3043 88.9464 53.4289 87.0711C51.5536 85.1957 50.5 82.6522 50.5 80C50.5 77.3478 51.5536 74.8043 53.4289 72.9289C55.3043 71.0536 57.8478 70 60.5 70M60.5 90C63.1522 90 65.6957 88.9464 67.5711 87.0711C69.4464 85.1957 70.5 82.6522 70.5 80C70.5 77.3478 69.4464 74.8043 67.5711 72.9289C65.6957 71.0536 63.1522 70 60.5 70M60.5 90V100M60.5 70V20M90.5 45C87.8478 45 85.3043 43.9464 83.4289 42.0711C81.5536 40.1957 80.5 37.6522 80.5 35C80.5 32.3478 81.5536 29.8043 83.4289 27.9289C85.3043 26.0536 87.8478 25 90.5 25M90.5 45C93.1522 45 95.6957 43.9464 97.5711 42.0711C99.4464 40.1957 100.5 37.6522 100.5 35C100.5 32.3478 99.4464 29.8043 97.5711 27.9289C95.6957 26.0536 93.1522 25 90.5 25M90.5 45V100M90.5 25V20" stroke="#3AA194" stroke-width="3" stroke-linecap="round" stroke-linejoin="round"/>
</g>
</g>
</svg>
