<?xml version='1.0' encoding='utf-8'?>
<svg xmlns="http://www.w3.org/2000/svg" width="264" height="35" viewBox="0.0 0.0 264.0 62.031807756944445" fill="none">
<path d="M0 29.5838L4.42769 24.2832C7.48816 26.8073 10.6959 28.4164 14.5872 28.4164C17.6477 28.4164 19.4987 27.1964 19.4987 25.2087V25.114C19.4987 23.2209 18.3313 22.2429 12.6415 20.781C5.78439 19.0246 1.3567 17.1316 1.3567 10.3691V10.2744C1.3567 4.10091 6.32076 0.00976562 13.2726 0.00976562C18.2366 0.00976562 22.4645 1.56629 25.9141 4.33228L22.0228 9.96943C19.0044 7.87654 16.0385 6.61449 13.1674 6.61449C10.2962 6.61449 8.79228 7.92912 8.79228 9.5803V9.67496C8.79228 11.9151 10.2541 12.6408 16.1332 14.1447C23.0429 15.9431 26.9342 18.4252 26.9342 24.3568V24.4514C26.9342 31.2139 21.7809 35.0001 14.4399 35.0001C9.28658 35.0001 4.08063 33.2017 0 29.5522" fill="#005752" />
<path d="M32.1172 0.505859H45.3897C56.0856 0.505859 63.4791 7.84678 63.4791 17.4278V17.5225C63.4791 27.1035 56.0856 34.5391 45.3897 34.5391H32.1172V0.505859ZM45.3897 27.7872C51.5212 27.7872 55.6544 23.6539 55.6544 17.6277V17.533C55.6544 11.5067 51.5212 7.26834 45.3897 7.26834H39.6053V27.7872H45.3897Z" fill="#005752" />
<path d="M65.166 29.5838L69.5937 24.2832C72.6542 26.8073 75.8619 28.4164 79.7532 28.4164C82.8137 28.4164 84.6647 27.1964 84.6647 25.2087V25.114C84.6647 23.2209 83.4973 22.2429 77.8075 20.781C70.9504 19.0246 66.5227 17.1316 66.5227 10.3691V10.2744C66.5227 4.10091 71.4868 0.00976562 78.4386 0.00976562C83.4026 0.00976562 87.6305 1.56629 91.0801 4.33228L87.1888 9.96943C84.1704 7.87654 81.2046 6.61449 78.3334 6.61449C75.4622 6.61449 73.9583 7.92912 73.9583 9.5803V9.67496C73.9583 11.9151 75.4202 12.6408 81.2992 14.1447C88.2089 15.9431 92.1002 18.4252 92.1002 24.3568V24.4514C92.1002 31.2139 86.9469 35.0001 79.606 35.0001C74.4526 35.0001 69.2466 33.2017 65.166 29.5522" fill="#005752" />
<path d="M120 6.3107C116.961 5.69019 116.382 4.91193 116.382 3.70246V3.66039C116.382 2.37731 117.623 1.45181 119.327 1.45181C120.789 1.45181 121.946 1.89352 123.081 2.87161L123.292 3.06092L124.259 1.85146L124.049 1.68318C122.577 0.50527 121.22 0.0214844 119.358 0.0214844C116.792 0.0214844 114.847 1.6306 114.847 3.75505V3.79712C114.847 5.95312 116.193 7.09948 119.506 7.77257C122.45 8.36153 123.018 9.11876 123.018 10.3072V10.3493C123.018 11.727 121.756 12.6946 119.958 12.6946C118.16 12.6946 116.887 12.1687 115.415 10.812L115.204 10.6227L114.205 11.7691L114.405 11.9479C116.088 13.4518 117.781 14.1249 119.895 14.1249C122.629 14.1249 124.533 12.5368 124.533 10.2546V10.2125C124.533 8.13015 123.176 6.96276 119.989 6.3107" fill="#005752" />
<path d="M132.156 14.0197L135.816 3.15557L139.487 14.0197H140.665L145.639 0.200271H144.041L140.097 11.3589L136.426 0.158203H135.28L131.61 11.3589L127.676 0.200271H126.004L130.978 14.0197H132.156Z" fill="#005752" />
<path d="M149.91 0.201172H148.385V13.926H149.91V0.201172Z" fill="#005752" />
<path d="M158.575 12.6836C156.777 12.6836 155.504 12.1577 154.032 10.801L153.821 10.6117L152.822 11.7581L153.022 11.9369C154.705 13.4408 156.398 14.1139 158.512 14.1139C161.246 14.1139 163.15 12.5258 163.15 10.2436V10.2016C163.15 8.11918 161.793 6.95179 158.607 6.29973C155.567 5.67922 154.989 4.90096 154.989 3.69149V3.64943C154.989 2.36634 156.23 1.44084 157.934 1.44084C159.395 1.44084 160.552 1.88256 161.688 2.86064L161.899 3.03943L162.866 1.82997L162.656 1.6617C161.183 0.483786 159.827 0 157.965 0C155.399 0 153.453 1.60911 153.453 3.73356V3.76511C153.453 5.92111 154.799 7.06748 158.112 7.74057C161.057 8.32952 161.625 9.08675 161.625 10.2752V10.3067C161.625 11.6845 160.363 12.652 158.565 12.652" fill="#005752" />
<path d="M170.817 12.6836C169.019 12.6836 167.746 12.1577 166.274 10.801L166.064 10.6117L165.064 11.7581L165.264 11.9369C166.947 13.4408 168.64 14.1139 170.754 14.1139C173.489 14.1139 175.392 12.5258 175.392 10.2436V10.2016C175.392 8.11918 174.036 6.95179 170.849 6.29973C167.809 5.67922 167.231 4.90096 167.231 3.69149V3.64943C167.231 2.36634 168.472 1.44084 170.176 1.44084C171.638 1.44084 172.795 1.88256 173.93 2.86064L174.141 3.03943L175.108 1.82997L174.898 1.6617C173.426 0.483786 172.069 0 170.207 0C167.641 0 165.695 1.60911 165.695 3.73356V3.76511C165.695 5.92111 167.042 7.06748 170.355 7.74057C173.299 8.32952 173.867 9.08675 173.867 10.2752V10.3067C173.867 11.6845 172.605 12.652 170.807 12.652" fill="#005752" />
<path d="M196.404 7.06882V7.02675C196.404 3.07233 193.343 0.201172 189.126 0.201172H184.467V13.926H189.126C193.343 13.926 196.404 11.0443 196.404 7.06882ZM189.126 12.4851H185.992V1.65253H189.126C192.439 1.65253 194.837 3.92422 194.837 7.06882V7.11089C194.837 10.2765 192.491 12.4851 189.126 12.4851Z" fill="#005752" />
<path d="M209.583 12.4746H201.095V7.7314H208.647V6.28004H201.095V1.65253H209.488V0.201172H199.57V13.926H209.583V12.4746Z" fill="#005752" />
<path d="M214.042 2.72527L222.918 13.926H224.064V0.201172H222.571V11.16L213.884 0.201172H212.559V13.926H214.042V2.72527Z" fill="#005752" />
<path d="M237.58 0.201172H226.863V1.65253H231.459V13.926H232.984V1.65253H237.58V0.201172Z" fill="#005752" />
<path d="M243.796 0.105469L237.412 13.9249H239.032L240.704 10.2334H248.129L249.801 13.9249H251.473L245.09 0.105469H243.796ZM247.466 8.80309H241.367L244.427 2.11423L247.466 8.80309Z" fill="#005752" />
<path d="M255.462 12.4746V0.201172H253.938V13.926H263.203V12.4746H255.462Z" fill="#005752" />
<path d="M120 27.0392C116.961 26.4187 116.382 25.6404 116.382 24.431V24.3889C116.382 23.1058 117.623 22.1803 119.327 22.1803C120.789 22.1803 121.946 22.622 123.081 23.6001L123.292 23.7894L124.259 22.58L124.049 22.4117C122.577 21.2338 121.22 20.75 119.358 20.75C116.792 20.75 114.847 22.3591 114.847 24.4836V24.5256C114.847 26.6816 116.193 27.828 119.506 28.5011C122.45 29.09 123.018 29.8473 123.018 31.0357V31.0778C123.018 32.4555 121.756 33.4231 119.958 33.4231C118.16 33.4231 116.887 32.8972 115.415 31.5405L115.204 31.3512L114.205 32.4976L114.405 32.6764C116.088 34.1803 117.781 34.8534 119.895 34.8534C122.629 34.8534 124.533 33.2653 124.533 30.9831V30.941C124.533 28.8587 123.176 27.6913 119.989 27.0392" fill="#005752" />
<path d="M140.812 27.6485C140.759 23.6836 137.815 20.7178 133.934 20.7178C129.601 20.7178 127.014 24.3251 127.014 27.8063V27.8484C127.014 31.8659 129.969 34.8948 133.892 34.8948C138.193 34.8948 140.77 31.34 140.812 27.8799C140.812 27.8589 140.823 27.8273 140.823 27.7958V27.659H140.812V27.6485ZM139.256 27.7958V27.8378C139.256 31.0455 136.973 33.454 133.934 33.454C130.894 33.454 128.581 30.9719 128.581 27.7958V27.7537C128.581 24.546 130.863 22.1376 133.902 22.1376C136.942 22.1376 139.256 24.6196 139.256 27.7958Z" fill="#005752" />
<path d="M145.505 20.9414H143.98V34.6662H153.246V33.2148H145.505V20.9414Z" fill="#005752" />
<path d="M165.255 28.9106C165.255 31.8344 163.793 33.4435 161.142 33.4435C158.492 33.4435 156.957 31.7608 156.957 28.8265V20.9492H155.432V28.9212C155.432 32.5916 157.609 34.8843 161.111 34.8843C164.613 34.8843 166.79 32.5601 166.79 28.816V20.9597H165.265V28.9317L165.255 28.9106Z" fill="#005752" />
<path d="M169.377 22.3822H173.973V34.6662H175.487V22.3822H180.083V20.9414H169.377V22.3822Z" fill="#005752" />
<path d="M184.552 20.9414H183.027V34.6662H184.552V20.9414Z" fill="#005752" />
<path d="M201.642 27.6485C201.59 23.6836 198.645 20.7178 194.764 20.7178C190.431 20.7178 187.844 24.3251 187.844 27.8063V27.8484C187.844 31.8659 190.799 34.8948 194.722 34.8948C199.023 34.8948 201.6 31.34 201.642 27.8799C201.642 27.8589 201.653 27.8273 201.653 27.7958V27.659H201.642V27.6485ZM200.086 27.7958V27.8378C200.086 31.0455 197.803 33.454 194.764 33.454C191.725 33.454 189.411 30.9719 189.411 27.7958V27.7537C189.411 24.546 191.693 22.1376 194.732 22.1376C197.772 22.1376 200.086 24.6196 200.086 27.7958Z" fill="#005752" />
<path d="M214.824 31.8897L206.21 21.0361L206.136 20.9414H204.801V34.6557H206.294V23.4655L215.171 34.6557H216.306V20.9414H214.824V31.8897Z" fill="#005752" />
<path d="M224.879 27.0392C221.829 26.4187 221.261 25.6404 221.261 24.431V24.3889C221.261 23.1058 222.502 22.1803 224.206 22.1803C225.668 22.1803 226.825 22.622 227.96 23.6001L228.171 23.7894L229.138 22.58L228.928 22.4117C227.456 21.2338 226.099 20.75 224.237 20.75C221.671 20.75 219.726 22.3591 219.726 24.4836V24.5256C219.726 26.6816 221.072 27.828 224.385 28.5011C227.329 29.09 227.897 29.8473 227.897 31.0357V31.0778C227.897 32.4555 226.635 33.4231 224.837 33.4231C223.038 33.4231 221.766 32.8972 220.293 31.5405L220.083 31.3512L219.084 32.4976L219.284 32.6764C220.967 34.1803 222.66 34.8534 224.774 34.8534C227.508 34.8534 229.412 33.2653 229.412 30.9831V30.941C229.412 28.8587 228.055 27.6913 224.868 27.0392" fill="#005752" />
<path d="M250.644 34.6126H238.654C238.202 34.6126 237.834 34.2445 237.834 33.7922V21.8028C237.834 21.3505 238.202 20.9824 238.654 20.9824H250.644C251.096 20.9824 251.464 21.3505 251.464 21.8028V33.7922C251.464 34.2445 251.096 34.6126 250.644 34.6126Z" fill="#E30613" />
<path d="M248.875 26.4835H245.814V23.4336H243.301V26.4835H240.24V29.0076H243.301V32.0576H245.814V29.0076H248.875V26.4835Z" fill="white" />
<g id="turkiye_tag"><text x="0.0" y="55.3270155" text-anchor="start" fill="#005752" font-family="sans-serif" font-weight="700" font-size="19.156549305555558">TÜRKİYE</text></g></svg>