<svg width="282" height="282" viewBox="0 0 282 282" fill="none" xmlns="http://www.w3.org/2000/svg">
<path d="M0.5 141C0.5 63.4764 63.5759 0.5 141 0.5C218.424 0.5 281.4 63.4759 281.5 141.001C281.5 218.524 218.524 281.5 141 281.5C63.4761 281.5 0.5 218.524 0.5 141Z" stroke="black"/>
<path d="M20.7008 92.8428L22.1008 93.4428L20.5008 97.4428L31.1008 101.643L30.4008 103.243L19.8008 99.1428L18.2008 103.143L16.8008 102.543L20.7008 92.8428Z" fill="black"/>
<path d="M34.7992 79.4436C35.1992 78.7436 35.3992 78.1436 35.3992 77.5436C35.3992 76.9436 34.9992 76.4436 34.2992 75.9436C33.4992 75.4436 32.7992 75.4436 32.1992 75.7436C31.8992 75.9436 31.4992 76.3436 31.1992 76.8436L28.8992 80.5436L32.5992 82.9436L34.7992 79.4436ZM26.6992 81.1436L29.8992 76.0436C30.3992 75.2436 30.9992 74.6436 31.5992 74.2436C32.6992 73.5436 33.8992 73.5436 35.1992 74.3436C35.8992 74.7436 36.2992 75.2436 36.4992 75.7436C36.6992 76.2436 36.7992 76.8436 36.7992 77.5436C37.1992 77.2436 37.6992 77.0436 38.0992 77.0436C38.4992 77.0436 39.0992 77.1436 39.6992 77.5436L41.1992 78.4436C41.5992 78.6436 41.9992 78.8436 42.1992 78.9436C42.5992 79.0436 42.8992 79.0436 43.1992 78.8436L43.3992 79.0436L42.2992 80.8436C42.1992 80.8436 41.9992 80.8436 41.8992 80.7436C41.6992 80.6436 41.3992 80.5436 40.9992 80.2436L39.0992 79.1436C38.3992 78.7436 37.6992 78.6436 37.1992 79.0436C36.8992 79.2436 36.4992 79.6436 36.1992 80.2436L34.0992 83.6436L38.7992 86.6436L37.8992 88.1436L26.6992 81.1436Z" fill="black"/>
<path d="M41.7996 60.0428L47.6996 65.4428C48.3996 66.0428 49.0996 66.4428 49.7996 66.6428C50.7996 66.8428 51.7996 66.5428 52.5996 65.6428C53.5996 64.5428 53.8996 63.4428 53.4996 62.3428C53.2996 61.7428 52.7996 61.1428 52.0996 60.5428L46.1996 55.1428L47.3996 53.8428L52.7996 58.7428C53.9996 59.8428 54.6996 60.8428 55.0996 61.6428C55.6996 63.2428 55.2996 64.9428 53.7996 66.5428C52.2996 68.1428 50.7996 68.7428 49.0996 68.2428C48.1996 67.9428 47.0996 67.3428 45.9996 66.2428L40.5996 61.3428L41.7996 60.0428Z" fill="black"/>
<path d="M64.1003 50.8428C64.6003 51.4428 65.1003 51.7428 65.6003 51.9428C66.6003 52.2428 67.7003 52.0428 68.8003 51.1428C69.3003 50.7428 69.7003 50.3428 70.1003 49.8428C70.7003 48.9428 70.7003 48.0428 70.2003 47.3428C69.8003 46.7428 69.3003 46.5428 68.8003 46.5428C68.3003 46.5428 67.6003 46.8428 66.7003 47.2428L65.1003 47.9428C64.0003 48.4428 63.2003 48.6428 62.7003 48.7428C61.7003 48.8428 60.9003 48.4428 60.3003 47.5428C59.6003 46.6428 59.3003 45.6428 59.5003 44.5428C59.7003 43.4428 60.4003 42.4428 61.5003 41.6428C62.6003 40.8428 63.7003 40.3428 64.8003 40.3428C65.9003 40.2428 67.0003 40.8428 67.8003 41.9428L66.5003 42.9428C66.0003 42.4428 65.5003 42.1428 65.1003 42.0428C64.3003 41.8428 63.3003 42.1428 62.3003 42.8428C61.5003 43.4428 61.0003 44.0428 60.9003 44.7428C60.8003 45.3428 60.9003 45.9428 61.3003 46.3428C61.7003 46.8428 62.2003 47.0428 62.8003 46.9428C63.2003 46.8428 64.0003 46.6428 65.1003 46.0428L66.8003 45.2428C67.6003 44.8428 68.3003 44.6428 68.9003 44.6428C69.9003 44.6428 70.8003 45.0428 71.5003 46.0428C72.4003 47.1428 72.6003 48.3428 72.1003 49.4428C71.6003 50.5428 70.9003 51.5428 69.8003 52.3428C68.5003 53.3428 67.3003 53.7428 66.1003 53.6428C64.9003 53.5428 63.9003 52.9428 63.0003 51.8428L64.1003 50.8428Z" fill="black"/>
<path d="M85.4992 27.1436L86.1992 28.5436L82.2992 30.5436L87.4992 40.6436L85.8992 41.4436L80.7992 31.3436L76.8992 33.3436L76.1992 31.9436L85.4992 27.1436Z" fill="black"/>
<path d="M97.5996 22.343L106.6 19.543L107.1 21.043L99.6996 23.343L100.9 27.043L107.7 24.943L108.1 26.343L101.3 28.443L102.6 32.643L110.1 30.343L110.6 31.843L101.5 34.643L97.5996 22.343Z" fill="black"/>
<path d="M126.399 27.4432C126.999 27.3432 127.499 27.2432 127.799 27.0432C128.399 26.7432 128.899 26.2432 129.299 25.5432C129.599 24.9432 129.799 24.2432 129.799 23.4432V22.0432C129.599 20.4432 129.199 19.2432 128.399 18.4432C127.699 17.6432 126.599 17.3432 125.199 17.4432L122.099 17.8432L123.299 27.6432L126.399 27.4432ZM120.199 16.6432L125.399 16.0432C127.199 15.8432 128.599 16.3432 129.699 17.4432C130.699 18.4432 131.299 19.8432 131.499 21.6432C131.699 23.0432 131.499 24.2432 131.199 25.4432C130.499 27.4432 129.099 28.6432 126.899 28.9432L121.699 29.5432L120.199 16.6432Z" fill="black"/>
<path d="M169.101 31.1429L168.001 32.0429L166.301 30.1429C165.801 30.3429 165.201 30.4429 164.601 30.4429C164.001 30.5429 163.401 30.4429 162.801 30.3429C160.801 29.9429 159.401 29.0429 158.501 27.5429C157.801 26.1429 157.601 24.4429 157.901 22.5429C158.201 20.8429 158.901 19.4429 160.001 18.3429C161.401 16.9429 163.201 16.5429 165.301 16.9429C167.501 17.3429 169.101 18.4429 169.901 20.0429C170.501 21.3429 170.701 22.8429 170.301 24.5429C170.101 25.3429 169.901 26.1429 169.601 26.8429C169.101 27.9429 168.401 28.7429 167.501 29.3429L169.101 31.1429ZM163.401 28.8429C163.801 28.9429 164.101 28.9429 164.401 28.9429C164.701 28.9429 165.001 28.9429 165.301 28.8429L164.101 27.4429L165.201 26.5429L166.601 28.1429C167.201 27.6429 167.701 27.0429 168.001 26.3429C168.301 25.6429 168.601 24.9429 168.701 24.2429C169.001 22.7429 168.801 21.4429 168.201 20.4429C167.601 19.3429 166.601 18.7429 165.301 18.4429C163.901 18.1429 162.801 18.4429 161.801 19.1429C160.801 19.8429 160.201 21.1429 159.801 22.9429C159.501 24.4429 159.701 25.7429 160.301 26.8429C160.901 27.9429 161.901 28.5429 163.401 28.8429Z" fill="black"/>
<path d="M186.4 23.043L183.5 30.443C183.2 31.343 183 32.143 183.1 32.843C183.2 33.943 183.9 34.643 185 35.143C186.4 35.643 187.5 35.543 188.4 34.843C188.9 34.443 189.3 33.843 189.6 32.943L192.5 25.543L194.2 26.243L191.5 32.943C190.9 34.443 190.3 35.443 189.6 36.143C188.3 37.343 186.6 37.443 184.6 36.643C182.6 35.843 181.5 34.543 181.3 32.843C181.2 31.843 181.5 30.643 182.1 29.243L184.8 22.543L186.4 23.043Z" fill="black"/>
<path d="M208.3 42.4434L209.6 36.5434L204.8 40.2434L208.3 42.4434ZM209.9 34.4434L211.6 35.4434L208.8 48.8434L207.2 47.8434L208.1 43.8434L203.8 41.1434L200.6 43.6434L199.1 42.7434L209.9 34.4434Z" fill="black"/>
<path d="M225.6 45.6436L226.9 46.8436L219.4 55.4436L224.3 59.7436L223.3 60.9436L217.1 55.4436L225.6 45.6436Z" fill="black"/>
<path d="M240.6 60.4434L241.8 61.7434L232.1 70.2434L230.9 68.9434L240.6 60.4434Z" fill="black"/>
<path d="M255.3 80.6432L254 81.4432L251.7 77.7432L242.1 83.8432L241.1 82.3432L250.7 76.2432L248.4 72.5432L249.7 71.7432L255.3 80.6432Z" fill="black"/>
<path d="M260.801 91.1436L261.601 93.0436L257.301 98.8436L264.501 99.8436L265.301 101.744L256.301 100.144L251.501 102.144L250.801 100.544L255.601 98.5436L260.801 91.1436Z" fill="black"/>
<path d="M107.4 174.843C107.7 174.943 108 175.343 108.4 175.543C108.6 175.643 109 176.043 109.1 176.143L109.6 176.543L110.1 176.943L110.8 177.443L111.5 177.943L112.2 178.443L112.9 178.943L113.6 179.443L114.3 179.843L115 180.243L115.8 180.643L116.6 181.043L117.4 181.443L118.2 181.843L119 182.243L119.8 182.643L120.6 183.043L121.4 183.343L122.2 183.643L123 183.943L123.8 184.243L124.6 184.543L125.4 184.843L126.2 185.143L127 185.443L128.2 185.843L129.8 186.243L131.4 186.643L133 186.943L134.6 187.243L136.2 187.543L137.8 187.743L139.4 187.943L141 188.043L142.2 188.143H147.8L148.6 188.043L149.4 187.943L150.2 187.843L151 187.743L151.8 187.643L152.5 187.543L153.2 187.443L153.9 187.343L154.6 187.143L155.3 186.943L156 186.743L156.7 186.543L157.4 186.343L158.1 186.143L158.4 186.043L158.8 185.943L159.6 185.643L160.3 185.343L161 185.043L161.7 184.743L162.4 184.443L163.1 184.143L163.8 183.843L164.4 183.543L165 183.243L165.6 182.943L166.2 182.643L167.1 182.243L168.3 181.643L169.4 181.043L170.5 180.443L171.6 179.843L172.6 179.143L173.6 178.443L174.6 177.743L175.6 177.043L176.7 176.243L176.8 176.143C177.4 175.743 177.7 175.443 178.2 175.243C179.4 174.843 180.3 175.743 179.8 176.543C179.5 177.043 179.3 177.243 178.7 177.843L178.1 178.343L176.9 179.243L175.7 180.143L174.5 180.943L173.3 181.743L172.1 182.543L170.8 183.243L169.5 183.943L168.2 184.643L166.9 185.343L165.9 185.843L165.2 186.143L164.5 186.443L163.8 186.743L163.1 187.043L162.4 187.343L161.6 187.643L160.8 187.943L160 188.243L159.2 188.543L158.4 188.843L157.6 189.143L157.2 189.243L156.8 189.343L156 189.543L155.2 189.743L154.4 189.943L153.6 190.143L152.8 190.343L152 190.543L151.2 190.743L150.4 190.843L149.6 190.943L148.8 191.043L148 191.143L147.2 191.243L146.4 191.343L145.6 191.443L144.8 191.543H139.9L138.6 191.443L136.9 191.343L135.2 191.143L133.5 190.943L131.8 190.643L130.1 190.343L128.4 189.943L126.7 189.543L125 189.043L123.7 188.643L122.9 188.343L122.1 188.043L121.3 187.743L120.5 187.443L119.7 187.143L118.9 186.843L118.1 186.543L117.3 186.243L116.5 185.843L115.7 185.443L114.9 185.043L114.1 184.643L113.3 184.243L112.5 183.843L111.7 183.443L110.9 183.043L110.1 182.543L109.4 182.043L108.7 181.543L108 181.043L107.3 180.543L106.6 180.043L105.9 179.543C105.8 179.543 105.9 179.543 105.7 179.443L105.5 179.343L105.4 179.243C104.8 178.843 104.6 178.243 104.8 177.643C105.2 176.343 106.3 175.543 106.7 175.143C106.6 175.043 107.1 174.743 107.4 174.843Z" fill="black"/>
<path d="M69.8008 149.144H71.7008V168.544H69.8008V149.144Z" fill="black"/>
<path d="M111 149.144H114.9C117.1 149.144 118.6 149.244 119.4 149.444C120.5 149.744 121.4 150.244 122.1 151.144C122.8 151.944 123.2 153.044 123.2 154.344C123.2 155.644 122.9 156.744 122.2 157.544C121.5 158.344 120.6 158.944 119.4 159.244C118.5 159.444 116.9 159.544 114.5 159.544H113.1V168.544H111.2V149.144H111ZM112.9 151.044V157.644H116.2C117.5 157.644 118.5 157.544 119.1 157.244C119.7 157.044 120.2 156.644 120.6 156.044C121 155.544 121.1 154.944 121.1 154.244C121.1 153.544 120.9 153.044 120.6 152.444C120.2 151.944 119.8 151.544 119.2 151.244C118.6 151.044 117.7 150.944 116.4 150.944H112.9V151.044Z" fill="black"/>
<path d="M131.9 149.144H133.9V166.644H141.3V168.544H131.9V149.144Z" fill="black"/>
<path d="M157.3 149.144L166.3 168.544H164.2L161.2 162.144H152.8L149.8 168.544H147.6L156.8 149.144H157.3ZM157.1 153.244L153.8 160.244H160.4L157.1 153.244Z" fill="black"/>
<path d="M174.4 168.544V149.144H174.8L187.7 163.944V149.144H189.6V168.544H189.2L176.4 153.844V168.544H174.4Z" fill="black"/>
<path d="M197.4 151.044V149.144H208V151.044H203.8V168.544H201.8V151.044H197.4Z" fill="black"/>
<path d="M92.8008 112.743H95.8008V139.343H107.101V142.143H92.8008V112.743Z" fill="black"/>
<path d="M124.801 112.743H141.701V115.643H127.801V124.843H141.601V127.743H127.801V139.343H141.601V142.243H124.801V112.743Z" fill="black"/>
<path d="M171.8 112.743L185.5 142.143H182.3L177.7 132.443H165L160.4 142.143H157.1L171 112.743H171.8ZM171.4 118.943L166.3 129.643H176.4L171.4 118.943Z" fill="black"/>
<path d="M203.1 142.143V112.743H203.7L223.3 135.243V112.743H226.2V142.143H225.5L206.1 119.843V142.143H203.1Z" fill="black"/>
<path d="M77.2004 126.843C77.2004 122.043 74.5004 117.843 70.5004 115.743L71.7004 113.643H71.6004C69.5004 112.643 67.1004 112.043 64.5004 112.043C60.2004 112.043 56.6004 113.443 53.7004 116.243C50.8004 119.043 49.4004 122.543 49.4004 126.643C49.4004 130.743 50.6004 133.843 53.0004 136.643C55.8004 139.943 59.7004 141.543 64.6004 141.543C67.0004 141.443 69.4004 141.143 71.6004 140.143L70.4004 138.043C74.4004 135.943 77.2004 131.743 77.2004 126.843ZM66.0004 138.843C65.6004 138.843 65.2004 138.943 64.8004 138.943C64.3004 138.943 63.8004 138.943 63.4004 138.843C57.4004 138.143 52.8004 133.043 52.8004 126.943C52.8004 120.343 58.2004 114.943 64.8004 114.943C71.4004 114.943 76.8004 120.343 76.8004 126.943C76.7004 133.043 72.0004 138.143 66.0004 138.843Z" fill="black"/>
<path d="M82.6992 168.544V149.144H83.1992L91.1992 158.244L99.2992 149.144H99.7992V168.544H97.7992V153.844L91.3992 161.144H91.2992L84.7992 153.844V168.544H82.6992Z" fill="black"/>
<path d="M217.1 235.343C217.5 235.743 217.9 236.043 218.3 236.143C219.1 236.343 219.9 236.143 220.8 235.343C221.2 235.043 221.5 234.643 221.7 234.243C222.1 233.543 222.1 232.843 221.6 232.343C221.2 231.943 220.9 231.743 220.5 231.743C220.1 231.843 219.5 232.043 218.9 232.343L217.7 232.943C216.9 233.343 216.3 233.643 215.8 233.643C215 233.743 214.4 233.443 213.9 232.843C213.3 232.143 213.1 231.343 213.2 230.543C213.3 229.743 213.8 228.943 214.7 228.143C215.5 227.443 216.3 227.043 217.2 226.943C218.1 226.843 218.9 227.243 219.6 228.043L218.6 228.843C218.2 228.443 217.8 228.243 217.5 228.143C216.8 228.043 216.1 228.243 215.4 228.943C214.8 229.443 214.5 229.943 214.4 230.443C214.4 230.943 214.5 231.343 214.8 231.643C215.1 232.043 215.5 232.143 216 232.043C216.3 231.943 216.9 231.743 217.7 231.243L219 230.543C219.6 230.243 220.2 230.043 220.6 230.043C221.4 229.943 222.1 230.343 222.7 230.943C223.4 231.743 223.6 232.643 223.3 233.543C223 234.443 222.4 235.243 221.6 235.943C220.6 236.743 219.7 237.143 218.7 237.143C217.8 237.143 216.9 236.643 216.2 235.843L217.1 235.343Z" fill="black"/>
<path d="M227.4 228.644C227.7 228.344 228 228.044 228.1 227.744C228.3 227.244 228.4 226.744 228.3 226.144C228.2 225.644 228 225.144 227.6 224.644C227.4 224.344 227.2 224.044 226.9 223.844C226 222.944 225.2 222.444 224.3 222.344C223.5 222.244 222.7 222.544 221.9 223.344L220.2 225.044L225.7 230.444L227.4 228.644ZM218.4 225.144L221.3 222.244C222.3 221.244 223.4 220.844 224.6 220.944C225.7 221.044 226.8 221.644 227.7 222.644C228.5 223.344 229 224.244 229.3 225.144C229.9 226.744 229.6 228.144 228.4 229.344L225.6 232.244L218.4 225.144Z" fill="black"/>
<path d="M230.6 222.243C231.1 222.543 231.5 222.743 231.9 222.843C232.7 222.943 233.5 222.543 234.2 221.643C234.5 221.243 234.8 220.843 234.9 220.443C235.2 219.643 235.1 219.043 234.5 218.543C234.1 218.243 233.7 218.043 233.3 218.243C232.9 218.343 232.4 218.643 231.8 219.143L230.7 220.043C230 220.643 229.4 220.943 229 221.043C228.3 221.243 227.6 221.143 226.9 220.643C226.2 220.043 225.8 219.343 225.8 218.543C225.7 217.743 226.1 216.843 226.8 215.943C227.5 215.143 228.2 214.643 229.1 214.343C230 214.143 230.8 214.343 231.7 215.043L230.9 216.043C230.4 215.743 230 215.643 229.7 215.643C229 215.643 228.4 216.043 227.8 216.743C227.3 217.343 227.1 217.943 227.1 218.443C227.1 218.943 227.3 219.343 227.7 219.643C228.1 219.943 228.5 220.043 228.9 219.843C229.2 219.743 229.7 219.343 230.5 218.743L231.6 217.843C232.1 217.443 232.6 217.143 233.1 217.043C233.9 216.843 234.6 217.043 235.3 217.643C236.2 218.343 236.5 219.143 236.4 220.043C236.3 220.943 235.9 221.843 235.2 222.643C234.4 223.643 233.5 224.143 232.6 224.343C231.7 224.443 230.8 224.243 229.9 223.543L230.6 222.243Z" fill="black"/>
<path d="M238.102 218.243C237.402 217.743 236.902 217.143 236.602 216.543C236.302 215.943 236.102 215.143 236.202 214.143L236.302 212.643C236.402 211.943 236.402 211.443 236.302 211.143C236.202 210.643 236.002 210.243 235.602 209.943C235.102 209.643 234.702 209.543 234.202 209.543C233.702 209.643 233.302 209.943 233.002 210.343C232.502 211.043 232.402 211.743 232.802 212.343C233.002 212.643 233.302 213.043 233.802 213.343L233.102 214.343C232.402 213.843 231.902 213.343 231.702 212.743C231.202 211.743 231.402 210.743 232.102 209.643C232.702 208.743 233.502 208.243 234.202 208.143C235.002 208.043 235.702 208.243 236.302 208.643C236.902 209.043 237.302 209.743 237.502 210.443C237.602 210.843 237.602 211.543 237.502 212.543L237.402 213.643C237.302 214.143 237.302 214.543 237.402 214.943C237.502 215.543 237.702 216.043 238.002 216.443L241.002 212.043L242.002 212.743L238.102 218.243Z" fill="black"/>
<path d="M241.701 210.344L242.501 209.144L243.701 209.944L242.901 211.144L241.701 210.344Z" fill="black"/>
<path d="M244.6 208.543C243.9 208.143 243.3 207.543 242.9 207.043C242.5 206.443 242.3 205.643 242.3 204.643V203.143C242.3 202.443 242.2 201.943 242.1 201.643C241.9 201.143 241.7 200.743 241.2 200.543C240.7 200.243 240.2 200.243 239.8 200.343C239.3 200.443 239 200.843 238.7 201.343C238.3 202.043 238.3 202.743 238.7 203.343C238.9 203.643 239.3 203.943 239.8 204.243L239.2 205.343C238.5 204.943 237.9 204.443 237.6 203.943C237 203.043 237.1 201.943 237.7 200.743C238.2 199.743 238.9 199.143 239.7 199.043C240.5 198.843 241.2 198.943 241.8 199.343C242.5 199.743 242.9 200.243 243.2 201.043C243.3 201.443 243.4 202.143 243.4 203.143V204.243C243.4 204.743 243.4 205.143 243.5 205.543C243.6 206.143 243.9 206.643 244.2 206.943L246.8 202.243L247.8 202.843L244.6 208.543Z" fill="black"/>
<path d="M209.547 239.772C208.988 239.883 208.485 239.548 208.373 238.989C208.261 238.43 208.597 237.926 209.156 237.814C209.715 237.703 210.218 238.038 210.33 238.597C210.442 239.101 210.106 239.66 209.547 239.772Z" fill="black"/>
<path d="M36.6996 201.444C36.1996 201.744 35.8996 202.144 35.6996 202.444C35.2996 203.144 35.4996 204.044 35.9996 205.044C36.2996 205.444 36.5996 205.844 36.8996 206.144C37.5996 206.744 38.1996 206.844 38.7996 206.444C39.2996 206.144 39.4996 205.844 39.5996 205.444C39.5996 205.044 39.4996 204.444 39.2996 203.744L38.8996 202.444C38.5996 201.544 38.4996 200.944 38.4996 200.444C38.4996 199.644 38.8996 199.044 39.5996 198.644C40.3996 198.144 41.1996 198.044 41.9996 198.344C42.7996 198.644 43.4996 199.244 44.0996 200.244C44.5996 201.144 44.8996 202.044 44.7996 202.944C44.6996 203.844 44.1996 204.544 43.1996 205.144L42.5996 204.044C42.9996 203.744 43.2996 203.344 43.4996 203.044C43.6996 202.444 43.5996 201.644 43.0996 200.844C42.6996 200.144 42.2996 199.744 41.7996 199.644C41.2996 199.544 40.8996 199.544 40.4996 199.744C40.0996 199.944 39.8996 200.344 39.8996 200.844C39.8996 201.144 40.0996 201.744 40.2996 202.744L40.6996 204.144C40.8996 204.844 40.9996 205.344 40.8996 205.844C40.7996 206.644 40.3996 207.244 39.5996 207.744C38.5996 208.344 37.6996 208.344 36.8996 207.844C36.0996 207.344 35.3996 206.644 34.8996 205.744C34.2996 204.644 34.0996 203.644 34.2996 202.744C34.4996 201.844 35.0996 201.044 35.9996 200.544L36.6996 201.444Z" fill="black"/>
<path d="M44.5 206.443L40.6 210.943L46.1 208.843L46.9 209.943L43 214.443L48.6 212.343L49.3 213.343L42.1 215.843L41.4 214.843L45.2 210.343L39.7 212.443L39 211.443L43.8 205.543L44.5 206.443Z" fill="black"/>
<path d="M49.6996 213.743L50.4996 214.743L44.8996 219.343L44.0996 218.343L49.6996 213.743ZM51.8996 211.943L52.6996 212.943L51.5996 213.843L50.7996 212.843L51.8996 211.943Z" fill="black"/>
<path d="M48.1992 219.843C47.8992 220.143 47.6992 220.443 47.6992 220.643C47.5992 221.143 47.7992 221.643 48.2992 222.243C48.5992 222.543 48.8992 222.843 49.2992 222.943C49.6992 223.043 49.9992 223.043 50.2992 222.743C50.4992 222.543 50.5992 222.243 50.5992 221.943C50.5992 221.743 50.3992 221.443 50.1992 220.943L49.7992 220.043C49.4992 219.443 49.2992 219.043 49.2992 218.643C49.1992 218.043 49.3992 217.543 49.7992 217.143C50.2992 216.743 50.8992 216.543 51.5992 216.643C52.1992 216.743 52.7992 217.143 53.3992 217.743C54.0992 218.543 54.3992 219.443 54.1992 220.143C54.0992 220.643 53.7992 221.043 53.4992 221.343L52.6992 220.443C52.8992 220.243 52.9992 220.043 53.0992 219.743C53.1992 219.343 52.9992 218.843 52.4992 218.343C52.1992 217.943 51.8992 217.743 51.5992 217.743C51.2992 217.643 51.0992 217.743 50.7992 217.943C50.5992 218.143 50.4992 218.443 50.4992 218.843C50.4992 219.043 50.5992 219.343 50.7992 219.643L51.1992 220.343C51.5992 221.143 51.7992 221.743 51.8992 222.143C51.9992 222.743 51.6992 223.243 51.1992 223.643C50.6992 224.043 50.0992 224.243 49.3992 224.143C48.6992 224.043 47.9992 223.643 47.3992 222.843C46.6992 222.043 46.3992 221.243 46.4992 220.643C46.5992 219.943 46.8992 219.443 47.3992 218.943L48.1992 219.843Z" fill="black"/>
<path d="M52.7992 224.844C52.4992 225.144 52.3992 225.444 52.2992 225.744C52.1992 226.244 52.4992 226.744 52.9992 227.344C53.2992 227.644 53.6992 227.844 54.0992 227.944C54.4992 228.044 54.7992 227.944 55.0992 227.644C55.2992 227.444 55.3992 227.144 55.2992 226.844C55.1992 226.644 55.0992 226.344 54.7992 225.844L54.2992 224.944C53.9992 224.344 53.7992 223.944 53.6992 223.644C53.5992 223.044 53.6992 222.544 54.0992 222.144C54.5992 221.644 55.1992 221.444 55.7992 221.544C56.4992 221.644 57.0992 221.944 57.6992 222.544C58.4992 223.344 58.7992 224.144 58.6992 224.944C58.5992 225.444 58.3992 225.844 58.0992 226.144L57.2992 225.344C57.4992 225.144 57.5992 224.844 57.5992 224.644C57.5992 224.244 57.3992 223.744 56.8992 223.244C56.5992 222.944 56.2992 222.744 55.9992 222.644C55.6992 222.644 55.4992 222.644 55.1992 222.844C54.9992 223.044 54.8992 223.344 54.9992 223.744C54.9992 223.944 55.1992 224.244 55.3992 224.544L55.7992 225.244C56.2992 226.044 56.4992 226.544 56.5992 226.944C56.6992 227.544 56.4992 228.044 56.0992 228.544C55.5992 229.044 55.0992 229.244 54.3992 229.244C53.6992 229.244 52.9992 228.844 52.2992 228.144C51.4992 227.344 51.1992 226.644 51.1992 225.944C51.1992 225.244 51.4992 224.644 51.9992 224.144L52.7992 224.844Z" fill="black"/>
<path d="M61.1996 235.143C61.4996 235.443 61.8996 235.643 62.0996 235.843C62.5996 236.043 63.1996 236.143 63.7996 235.943C64.2996 235.843 64.7996 235.543 65.2996 235.143C65.5996 234.943 65.8996 234.643 66.0996 234.443C66.8996 233.543 67.3996 232.643 67.4996 231.843C67.5996 231.043 67.1996 230.243 66.3996 229.443L64.5996 227.843L59.3996 233.543L61.1996 235.143ZM64.2996 226.043L67.2996 228.743C68.2996 229.643 68.7996 230.743 68.6996 231.943C68.5996 233.043 68.0996 234.143 67.1996 235.143C66.4996 235.943 65.6996 236.543 64.7996 236.843C63.2996 237.543 61.7996 237.243 60.5996 236.043L57.5996 233.343L64.2996 226.043Z" fill="black"/>
<path d="M71.9008 235.843C72.3008 236.143 72.6008 236.543 72.9008 237.043C73.1008 237.543 73.3008 238.043 73.2008 238.443C73.2008 238.843 73.0008 239.343 72.8008 239.743C72.7008 240.043 72.4008 240.543 71.9008 241.143L67.6008 237.943C67.2008 238.543 67.0008 239.143 66.9008 239.643C66.9008 240.243 67.2008 240.643 67.7008 241.143C68.2008 241.543 68.8008 241.643 69.3008 241.543C69.6008 241.443 69.9008 241.343 70.2008 241.143L71.2008 241.843C71.0008 242.043 70.7008 242.243 70.4008 242.343C70.1008 242.543 69.7008 242.543 69.4008 242.643C68.9008 242.743 68.4008 242.643 67.8008 242.443C67.5008 242.343 67.2008 242.143 66.9008 241.943C66.2008 241.443 65.8008 240.643 65.6008 239.743C65.5008 238.843 65.8008 237.943 66.5008 236.943C67.2008 236.043 68.0008 235.443 69.0008 235.243C70.2008 235.043 71.1008 235.243 71.9008 235.843ZM71.5008 239.643C71.8008 239.143 71.9008 238.743 72.0008 238.443C72.1008 237.743 71.8008 237.143 71.2008 236.743C70.7008 236.443 70.2008 236.243 69.7008 236.343C69.1008 236.443 68.7008 236.743 68.3008 237.243L71.5008 239.643Z" fill="black"/>
<path d="M75.1992 238.644L76.1992 239.244L75.5992 240.144C76.0992 239.944 76.5992 239.944 76.9992 239.944C77.3992 240.044 77.7992 240.144 78.1992 240.444C79.0992 241.044 79.4992 241.744 79.3992 242.544C79.2992 242.944 79.0992 243.544 78.6992 244.144L76.0992 248.044L75.0992 247.344L77.5992 243.444C77.7992 243.044 77.9992 242.744 77.9992 242.444C78.0992 241.944 77.8992 241.544 77.3992 241.244C77.1992 241.044 76.8992 240.944 76.7992 240.944C76.4992 240.844 76.0992 240.844 75.6992 240.944C75.3992 241.044 75.0992 241.144 74.9992 241.344C74.7992 241.544 74.5992 241.844 74.2992 242.244L72.1992 245.444L71.1992 244.744L75.1992 238.644Z" fill="black"/>
<path d="M82.8 241.043L83.9 241.643L82.8 243.343L83.8 243.943L83.3 244.843L82.3 244.243L79.8 248.343C79.7 248.543 79.7 248.743 79.8 248.943C79.9 249.043 80 249.143 80.2 249.243C80.3 249.243 80.3 249.343 80.4 249.343C80.5 249.343 80.5 249.443 80.6 249.443L80.1 250.243C80 250.243 79.8 250.143 79.7 250.043C79.6 249.943 79.4 249.943 79.3 249.843C78.8 249.543 78.6 249.243 78.5 248.843C78.5 248.443 78.6 248.143 78.8 247.743L81.3 243.643L80.5 243.143L81 242.243L81.8 242.743L82.8 241.043Z" fill="black"/>
<path d="M82.7992 249.643C82.5992 249.943 82.5992 250.243 82.7992 250.543C82.8992 250.843 83.1992 251.043 83.4992 251.243C83.8992 251.443 84.2992 251.543 84.7992 251.543C85.5992 251.543 86.0992 251.243 86.4992 250.543L86.9992 249.643C86.7992 249.643 86.5992 249.643 86.3992 249.543C86.1992 249.443 85.8991 249.443 85.6991 249.343L84.9992 249.043C84.5992 248.843 84.1992 248.843 83.9992 248.843C83.2992 249.043 82.9992 249.243 82.7992 249.643ZM86.5992 248.843C86.8992 248.943 87.0992 248.943 87.2992 248.743C87.3992 248.643 87.4992 248.543 87.5992 248.343C87.7992 247.943 87.7992 247.643 87.5992 247.343C87.3992 247.043 87.0992 246.743 86.5992 246.543C85.9992 246.243 85.4992 246.243 85.0992 246.343C84.8992 246.443 84.6992 246.643 84.3992 246.943L83.3992 246.443C83.7992 245.643 84.3992 245.243 84.9992 245.143C85.6992 245.043 86.2992 245.243 86.9992 245.543C87.7992 245.943 88.2992 246.443 88.5992 246.943C88.8992 247.443 88.8992 248.043 88.5992 248.643L86.6991 252.443C86.5991 252.543 86.5992 252.643 86.5992 252.743C86.5992 252.843 86.6992 252.943 86.7992 253.043C86.7992 253.043 86.8992 253.143 86.9992 253.143C87.0992 253.143 87.0991 253.143 87.1991 253.243L86.7992 254.043C86.5992 254.043 86.4992 253.943 86.3992 253.943C86.2992 253.943 86.1992 253.843 85.9992 253.743C85.5992 253.543 85.3992 253.243 85.3992 252.943C85.3992 252.743 85.3992 252.543 85.4992 252.243C85.0992 252.443 84.6992 252.543 84.0992 252.543C83.5992 252.543 83.0992 252.443 82.5992 252.143C81.9992 251.843 81.5992 251.443 81.3992 250.843C81.1992 250.243 81.1992 249.743 81.4992 249.143C81.7992 248.543 82.1992 248.143 82.7992 248.043C83.2992 247.943 83.8992 247.943 84.5992 248.143L86.5992 248.843Z" fill="black"/>
<path d="M92.3996 245.343L93.4996 245.843L89.1996 254.943L88.0996 254.443L92.3996 245.343Z" fill="black"/>
<path d="M97.1996 254.943C96.9996 255.443 96.9996 255.943 97.0996 256.343C97.2996 257.143 97.8996 257.743 98.9996 258.143C99.4996 258.343 99.8996 258.443 100.4 258.443C101.3 258.443 101.8 258.143 102.1 257.443C102.3 256.943 102.3 256.543 102 256.143C101.8 255.843 101.3 255.443 100.7 255.043L99.4996 254.243C98.6996 253.743 98.1996 253.343 97.9996 252.943C97.5996 252.343 97.4996 251.643 97.7996 250.843C98.0996 250.043 98.6996 249.443 99.4996 249.143C100.3 248.843 101.2 248.843 102.3 249.343C103.3 249.743 104 250.243 104.5 251.043C105 251.743 105 252.643 104.6 253.743L103.4 253.243C103.5 252.743 103.5 252.243 103.4 251.943C103.2 251.343 102.6 250.843 101.7 250.443C101 250.143 100.4 250.143 99.8996 250.243C99.4996 250.443 99.0996 250.743 98.9996 251.143C98.7996 251.643 98.8996 252.043 99.1996 252.343C99.3996 252.543 99.8996 252.943 100.7 253.543L101.9 254.343C102.5 254.743 102.9 255.143 103.1 255.543C103.5 256.243 103.6 256.943 103.2 257.843C102.8 258.843 102.1 259.443 101.2 259.643C100.3 259.843 99.2996 259.643 98.2996 259.243C97.0996 258.743 96.2996 258.143 95.8996 257.243C95.4996 256.443 95.4996 255.443 95.8996 254.443L97.1996 254.943Z" fill="black"/>
<path d="M106.8 261.043C107.6 261.243 108.2 261.143 108.7 260.643C109.2 260.143 109.5 259.543 109.7 258.843C109.9 258.143 110 257.643 109.9 257.143C109.8 256.443 109.3 255.943 108.5 255.643C107.8 255.443 107.2 255.543 106.7 255.943C106.2 256.443 105.8 257.043 105.6 257.743C105.4 258.443 105.3 259.143 105.5 259.743C105.6 260.443 106.1 260.843 106.8 261.043ZM108.8 254.643C109.7 254.943 110.4 255.443 110.8 256.243C111.2 257.043 111.3 258.043 110.9 259.143C110.6 260.243 110 261.143 109.2 261.643C108.4 262.243 107.5 262.343 106.3 261.943C105.3 261.643 104.7 261.043 104.3 260.243C103.9 259.443 103.9 258.443 104.2 257.343C104.6 256.143 105.1 255.343 106 254.843C106.9 254.443 107.8 254.343 108.8 254.643Z" fill="black"/>
<path d="M113.701 253.443L114.901 253.743L112.501 263.443L111.301 263.143L113.701 253.443Z" fill="black"/>
<path d="M116.8 256.943L115.9 261.743C115.8 262.143 115.8 262.443 115.9 262.643C116 263.143 116.4 263.443 117 263.543C117.8 263.743 118.5 263.443 118.9 262.743C119.1 262.343 119.3 261.843 119.5 261.143L120.2 257.643L121.4 257.843L120.1 265.043L119 264.843L119.2 263.743C119 263.943 118.8 264.143 118.5 264.343C118 264.643 117.4 264.743 116.7 264.643C115.7 264.443 115 263.943 114.8 263.243C114.7 262.843 114.7 262.343 114.8 261.743L115.7 256.843L116.8 256.943Z" fill="black"/>
<path d="M123.699 256.043L124.899 256.243L124.599 258.243L125.799 258.443L125.599 259.443L124.399 259.243L123.599 263.943C123.599 264.243 123.599 264.343 123.799 264.443C123.899 264.543 123.999 264.543 124.299 264.643H124.699L124.499 265.643H124.099C123.899 265.643 123.799 265.643 123.599 265.543C122.999 265.443 122.699 265.243 122.499 264.943C122.299 264.643 122.299 264.243 122.399 263.743L123.199 258.943L122.199 258.743L122.399 257.743L123.399 257.943L123.699 256.043Z" fill="black"/>
<path d="M126.601 258.743L127.801 258.843L127.001 266.043L125.801 265.943L126.601 258.743ZM126.901 255.943L128.101 256.043L127.901 257.443L126.701 257.343L126.901 255.943Z" fill="black"/>
<path d="M131.799 265.643C132.599 265.743 133.199 265.443 133.499 264.843C133.799 264.243 133.999 263.543 134.099 262.843C134.099 262.143 134.099 261.643 133.899 261.143C133.599 260.443 132.999 260.043 132.199 260.043C131.399 259.943 130.899 260.243 130.499 260.743C130.099 261.243 129.899 261.943 129.799 262.743C129.699 263.543 129.899 264.143 130.199 264.743C130.499 265.243 131.099 265.543 131.799 265.643ZM132.299 258.843C133.199 258.943 133.999 259.243 134.599 259.943C135.199 260.643 135.499 261.543 135.399 262.743C135.299 263.943 134.999 264.843 134.299 265.643C133.699 266.343 132.799 266.743 131.599 266.643C130.599 266.543 129.799 266.143 129.299 265.443C128.799 264.743 128.499 263.743 128.599 262.643C128.699 261.443 129.099 260.443 129.699 259.743C130.399 259.143 131.299 258.843 132.299 258.843Z" fill="black"/>
<path d="M136.6 259.443H137.8V260.443C138.1 260.043 138.5 259.743 138.9 259.543C139.3 259.343 139.7 259.243 140.2 259.243C141.2 259.243 141.9 259.543 142.3 260.343C142.5 260.743 142.6 261.343 142.6 262.043V266.743H141.3V262.143C141.3 261.743 141.2 261.343 141.1 261.043C140.9 260.543 140.5 260.343 139.9 260.343C139.6 260.343 139.4 260.343 139.2 260.443C138.9 260.543 138.6 260.743 138.3 261.043C138.1 261.243 138 261.543 137.9 261.843C137.8 262.143 137.8 262.443 137.8 262.943V266.743H136.6V259.443Z" fill="black"/>
<path d="M145.001 264.343C145.101 264.743 145.201 265.043 145.401 265.243C145.701 265.643 146.301 265.743 147.001 265.743C147.501 265.743 147.801 265.643 148.201 265.343C148.601 265.043 148.701 264.843 148.701 264.443C148.701 264.143 148.501 263.943 148.201 263.743C148.001 263.643 147.701 263.543 147.101 263.443L146.101 263.243C145.501 263.143 145.001 262.943 144.701 262.843C144.201 262.543 143.901 262.143 143.801 261.543C143.801 260.843 144.001 260.243 144.501 259.843C145.001 259.343 145.601 259.143 146.501 259.043C147.601 258.943 148.401 259.243 148.901 259.843C149.201 260.243 149.401 260.643 149.401 261.143L148.201 261.243C148.201 260.943 148.001 260.743 147.901 260.543C147.601 260.243 147.101 260.143 146.401 260.143C145.901 260.143 145.601 260.243 145.401 260.443C145.201 260.643 145.101 260.843 145.101 261.143C145.101 261.443 145.301 261.743 145.601 261.843C145.801 261.943 146.101 262.043 146.401 262.143L147.201 262.343C148.101 262.543 148.701 262.643 149.001 262.843C149.501 263.143 149.801 263.643 149.801 264.243C149.801 264.943 149.601 265.443 149.201 265.943C148.701 266.443 148.001 266.743 147.001 266.743C145.901 266.843 145.101 266.643 144.601 266.143C144.101 265.643 143.801 265.043 143.801 264.343H145.001Z" fill="black"/>
<path d="M164.499 261.143C164.599 261.743 164.899 262.143 165.199 262.443C165.799 263.043 166.599 263.143 167.699 262.943C168.199 262.843 168.599 262.643 168.999 262.443C169.699 262.043 169.999 261.443 169.899 260.743C169.799 260.243 169.499 259.843 169.199 259.743C168.799 259.543 168.199 259.543 167.499 259.543H166.099C165.199 259.543 164.499 259.443 164.099 259.243C163.399 258.943 162.899 258.443 162.799 257.643C162.599 256.743 162.799 255.943 163.299 255.243C163.799 254.543 164.599 254.043 165.699 253.843C166.699 253.643 167.699 253.643 168.499 254.043C169.299 254.343 169.899 255.143 170.099 256.243L168.799 256.543C168.599 256.043 168.399 255.643 168.099 255.443C167.599 255.043 166.799 254.943 165.899 255.143C165.099 255.343 164.599 255.543 164.299 256.043C163.999 256.443 163.899 256.843 163.999 257.343C164.099 257.843 164.399 258.143 164.799 258.243C165.099 258.343 165.699 258.343 166.699 258.443H168.099C168.799 258.443 169.399 258.543 169.799 258.743C170.499 259.043 170.999 259.643 171.199 260.543C171.399 261.643 171.199 262.443 170.499 263.143C169.799 263.743 168.899 264.243 167.899 264.443C166.699 264.743 165.699 264.543 164.799 264.143C163.999 263.643 163.499 262.943 163.299 261.843L164.499 261.143Z" fill="black"/>
<path d="M176.7 260.143C177.1 260.043 177.5 259.843 177.7 259.643C178.2 259.343 178.5 258.843 178.6 258.243C178.7 257.743 178.8 257.243 178.7 256.543C178.7 256.143 178.6 255.843 178.5 255.543C178.1 254.343 177.6 253.543 176.9 252.943C176.2 252.443 175.4 252.343 174.3 252.643L172 253.343L174.3 260.743L176.7 260.143ZM170.5 252.743L174.4 251.543C175.7 251.143 176.9 251.343 177.9 252.043C178.8 252.643 179.5 253.643 179.9 255.043C180.2 256.043 180.3 257.043 180.2 257.943C180 259.643 179 260.643 177.4 261.143L173.5 262.343L170.5 252.743Z" fill="black"/>
<path d="M182.6 256.043C182.8 256.543 183.1 256.943 183.5 257.143C184.2 257.543 185 257.543 186.1 257.143C186.6 256.943 187 256.743 187.3 256.443C187.9 255.843 188.1 255.243 187.8 254.543C187.6 254.043 187.3 253.743 186.9 253.643C186.5 253.543 185.9 253.543 185.2 253.743L183.8 253.943C182.9 254.143 182.2 254.143 181.8 254.043C181 253.943 180.5 253.443 180.2 252.643C179.9 251.843 179.9 251.043 180.2 250.243C180.6 249.443 181.3 248.843 182.3 248.443C183.3 248.043 184.2 247.943 185.1 248.143C186 248.343 186.6 248.943 187.1 249.943L185.9 250.443C185.6 249.943 185.3 249.643 185 249.443C184.4 249.143 183.7 249.143 182.7 249.543C182 249.843 181.5 250.243 181.3 250.643C181.1 251.043 181.1 251.543 181.3 251.943C181.5 252.443 181.8 252.643 182.3 252.743C182.6 252.743 183.2 252.743 184.2 252.543L185.6 252.343C186.3 252.243 186.9 252.243 187.3 252.343C188.1 252.543 188.6 253.043 189 253.843C189.4 254.843 189.4 255.743 188.8 256.543C188.2 257.343 187.5 257.843 186.5 258.243C185.3 258.743 184.3 258.843 183.4 258.443C182.5 258.143 181.9 257.443 181.5 256.443L182.6 256.043Z" fill="black"/>
<path d="M197.6 251.043L198.9 250.343L199.6 251.643L198.3 252.343L197.6 251.043Z" fill="black"/>
<path d="M201.001 250.843C200.601 250.143 200.301 249.443 200.201 248.743C200.101 248.043 200.301 247.243 200.801 246.343L201.501 245.043C201.801 244.443 202.001 243.943 202.101 243.643C202.201 243.143 202.101 242.643 201.901 242.243C201.601 241.743 201.201 241.443 200.701 241.343C200.201 241.243 199.801 241.343 199.301 241.643C198.601 242.143 198.301 242.643 198.401 243.443C198.401 243.843 198.601 244.243 198.901 244.843L197.801 245.543C197.301 244.843 197.101 244.143 197.101 243.543C197.001 242.443 197.601 241.543 198.701 240.843C199.601 240.243 200.501 240.043 201.301 240.243C202.101 240.443 202.601 240.943 203.101 241.543C203.501 242.243 203.701 242.943 203.501 243.643C203.401 244.043 203.101 244.743 202.701 245.543L202.201 246.443C202.001 246.843 201.801 247.243 201.701 247.643C201.501 248.243 201.501 248.743 201.701 249.243L206.201 246.343L206.801 247.343L201.001 250.843Z" fill="black"/>
<path d="M155.798 261.976C155.24 261.808 154.962 261.251 155.073 260.749C155.24 260.191 155.798 259.913 156.3 260.024C156.857 260.192 157.136 260.749 157.025 261.251C156.857 261.808 156.355 262.143 155.798 261.976Z" fill="black"/>
<path d="M189.5 248.743L189.1 247.843C189.9 247.343 190.4 246.943 190.6 246.643C190.8 246.343 190.9 245.743 190.7 244.943L191.6 244.543L195.8 253.443L194.6 254.043L191.6 247.743L189.5 248.743Z" fill="black"/>
</svg>
