<svg width="38" height="38" viewBox="0 0 38 38" fill="none" xmlns="http://www.w3.org/2000/svg">
<path d="M15.8333 23.75L24.0508 19L15.8333 14.25V23.75ZM34.1367 11.3525C34.3425 12.0966 34.485 13.0941 34.58 14.3608C34.6908 15.6275 34.7383 16.72 34.7383 17.67L34.8333 19C34.8333 22.4675 34.58 25.0166 34.1367 26.6475C33.7408 28.0725 32.8225 28.9908 31.3975 29.3866C30.6533 29.5925 29.2917 29.735 27.2017 29.83C25.1433 29.9408 23.2592 29.9883 21.5175 29.9883L19 30.0833C12.3658 30.0833 8.23332 29.83 6.60249 29.3866C5.17749 28.9908 4.25916 28.0725 3.86332 26.6475C3.65749 25.9033 3.51499 24.9058 3.41999 23.6391C3.30916 22.3725 3.26166 21.28 3.26166 20.33L3.16666 19C3.16666 15.5325 3.41999 12.9833 3.86332 11.3525C4.25916 9.92746 5.17749 9.00913 6.60249 8.61329C7.34666 8.40746 8.70832 8.26496 10.7983 8.16996C12.8567 8.05913 14.7408 8.01163 16.4825 8.01163L19 7.91663C25.6342 7.91663 29.7667 8.16996 31.3975 8.61329C32.8225 9.00913 33.7408 9.92746 34.1367 11.3525Z" fill="#3AA194"/>
</svg>
