<svg width="354" height="168" viewBox="0 0 354 168" fill="none" xmlns="http://www.w3.org/2000/svg">
<path d="M176.5 75.5001C171.13 72.5701 163.585 68.0001 156.5 68.0001C146 67.9951 136.5 74.2351 136.5 93.0001C136.5 117.495 141.78 135.05 149.855 145.685C152.72 149.465 159.705 148.29 162.69 144.505C164.68 141.98 166.785 137.31 169 130.5C170.46 126.645 173.46 122.98 176.5 123C179.51 123.02 182.55 126.685 184 130.5C186.215 137.31 188.32 141.975 190.31 144.5C193.295 148.295 200.28 149.465 203.145 145.685C211.22 135.05 216.5 117.5 216.5 93.0001C216.5 74.3001 206.96 68.0301 196.5 68.0001C189.385 67.9801 181.9 72.5551 176.5 75.5001ZM176.5 75.5001L191.5 83.0001Z" fill="#EAF4F3"/>
<path d="M176.5 75.5001L191.5 83.0001M176.5 75.5001C171.13 72.5701 163.585 68.0001 156.5 68.0001C146 67.9951 136.5 74.2351 136.5 93.0001C136.5 117.495 141.78 135.05 149.855 145.685C152.72 149.465 159.705 148.29 162.69 144.505C164.68 141.98 166.785 137.31 169 130.5C170.46 126.645 173.46 122.98 176.5 123C179.51 123.02 182.55 126.685 184 130.5C186.215 137.31 188.32 141.975 190.31 144.5C193.295 148.295 200.28 149.465 203.145 145.685C211.22 135.05 216.5 117.5 216.5 93.0001C216.5 74.3001 206.96 68.0301 196.5 68.0001C189.385 67.9801 181.9 72.5551 176.5 75.5001Z" stroke="#3AA194" stroke-width="3" stroke-linecap="round" stroke-linejoin="round"/>
</svg>
