<svg width="121" height="120" viewBox="0 0 121 120" fill="none" xmlns="http://www.w3.org/2000/svg">
<g id="Icon">
<g id="Vector">
<path d="M20.5 40V30C20.5 27.3478 21.5536 24.8043 23.4289 22.9289C25.3043 21.0536 27.8478 20 30.5 20H40.5M20.5 80V90C20.5 92.6522 21.5536 95.1957 23.4289 97.0711C25.3043 98.9464 27.8478 100 30.5 100H40.5M80.5 20H90.5C93.1522 20 95.6957 21.0536 97.5711 22.9289C99.4464 24.8043 100.5 27.3478 100.5 30V40M80.5 100H90.5C93.1522 100 95.6957 98.9464 97.5711 97.0711C99.4464 95.1957 100.5 92.6522 100.5 90V80M43.515 48.05C44.4645 47.0825 45.5974 46.3139 46.8474 45.7892C48.0973 45.2646 49.4394 44.9943 50.795 44.9943C52.1506 44.9943 53.4927 45.2646 54.7426 45.7892C55.9926 46.3139 57.1255 47.0825 58.075 48.05L60.5 50L63 48.02C63.9488 47.0631 65.0783 46.3042 66.3229 45.7873C67.5674 45.2705 68.9022 45.006 70.2498 45.0093C71.5974 45.0125 72.9309 45.2835 74.173 45.8063C75.415 46.3291 76.5408 47.0935 77.485 48.055C79.4177 50.0222 80.5006 52.6697 80.5006 55.4275C80.5006 58.1853 79.4177 60.8328 77.485 62.8L60.5 80L43.515 62.8C41.5808 60.8325 40.497 58.184 40.497 55.425C40.497 52.666 41.5808 50.0175 43.515 48.05Z" fill="#EAF4F3"/>
<path d="M20.5 40V30C20.5 27.3478 21.5536 24.8043 23.4289 22.9289C25.3043 21.0536 27.8478 20 30.5 20H40.5M20.5 80V90C20.5 92.6522 21.5536 95.1957 23.4289 97.0711C25.3043 98.9464 27.8478 100 30.5 100H40.5M80.5 20H90.5C93.1522 20 95.6957 21.0536 97.5711 22.9289C99.4464 24.8043 100.5 27.3478 100.5 30V40M80.5 100H90.5C93.1522 100 95.6957 98.9464 97.5711 97.0711C99.4464 95.1957 100.5 92.6522 100.5 90V80M43.515 48.05C44.4645 47.0825 45.5974 46.3139 46.8474 45.7892C48.0973 45.2646 49.4394 44.9943 50.795 44.9943C52.1506 44.9943 53.4927 45.2646 54.7426 45.7892C55.9926 46.3139 57.1255 47.0825 58.075 48.05L60.5 50L63 48.02C63.9488 47.0631 65.0783 46.3042 66.3229 45.7873C67.5674 45.2705 68.9022 45.006 70.2498 45.0093C71.5974 45.0125 72.9309 45.2835 74.173 45.8063C75.415 46.3291 76.5408 47.0935 77.485 48.055C79.4177 50.0222 80.5006 52.6697 80.5006 55.4275C80.5006 58.1853 79.4177 60.8328 77.485 62.8L60.5 80L43.515 62.8C41.5808 60.8325 40.497 58.184 40.497 55.425C40.497 52.666 41.5808 50.0175 43.515 48.05Z" stroke="#3AA194" stroke-width="3" stroke-linecap="round" stroke-linejoin="round"/>
</g>
</g>
</svg>
