<svg width="120" height="120" viewBox="0 0 120 120" fill="none" xmlns="http://www.w3.org/2000/svg">
<path d="M20 65C28.9155 66.0595 37.2152 70.0877 43.5638 76.4362C49.9123 82.7848 53.9405 91.0845 55 100C59.4196 97.452 63.1165 93.8191 65.7411 89.4447C68.3658 85.0702 69.8316 80.0987 70 75C78.3956 72.0466 85.7268 66.67 91.0667 59.5501C96.4067 52.4301 99.5155 43.8867 100 35C100 31.0218 98.4196 27.2064 95.6066 24.3934C92.7936 21.5804 88.9782 20 85 20C76.1133 20.4845 67.5699 23.5933 60.4499 28.9333C53.33 34.2732 47.9534 41.6044 45 50C39.9013 50.1684 34.9298 51.6342 30.5553 54.2589C26.1809 56.8835 22.548 60.5804 20 65Z" fill="#EAF4F3" stroke="#3AA194" stroke-width="3" stroke-linecap="round" stroke-linejoin="round"/>
<path d="M35.0005 70C29.7966 72.9379 25.5887 77.3629 22.9162 82.7079C20.2437 88.0529 19.2284 94.0742 20.0005 100C25.9262 100.772 31.9476 99.7567 37.2926 97.0842C42.6375 94.4117 47.0626 90.2038 50.0005 85M70.0005 45C70.0005 46.3261 70.5272 47.5979 71.4649 48.5355C72.4026 49.4732 73.6744 50 75.0005 50C76.3265 50 77.5983 49.4732 78.536 48.5355C79.4737 47.5979 80.0005 46.3261 80.0005 45C80.0005 43.6739 79.4737 42.4021 78.536 41.4645C77.5983 40.5268 76.3265 40 75.0005 40C73.6744 40 72.4026 40.5268 71.4649 41.4645C70.5272 42.4021 70.0005 43.6739 70.0005 45Z" fill="#EAF4F3"/>
<path d="M35.0005 70C29.7966 72.9379 25.5887 77.3629 22.9162 82.7079C20.2437 88.0529 19.2284 94.0742 20.0005 100C25.9262 100.772 31.9476 99.7567 37.2926 97.0842C42.6375 94.4117 47.0626 90.2038 50.0005 85M70.0005 45C70.0005 46.3261 70.5272 47.5979 71.4649 48.5355C72.4026 49.4732 73.6744 50 75.0005 50C76.3265 50 77.5983 49.4732 78.536 48.5355C79.4737 47.5979 80.0005 46.3261 80.0005 45C80.0005 43.6739 79.4737 42.4021 78.536 41.4645C77.5983 40.5268 76.3265 40 75.0005 40C73.6744 40 72.4026 40.5268 71.4649 41.4645C70.5272 42.4021 70.0005 43.6739 70.0005 45Z" stroke="#3AA194" stroke-width="3" stroke-linecap="round" stroke-linejoin="round"/>
</svg>
