<svg width="101" height="101" viewBox="0 0 101 101" fill="none" xmlns="http://www.w3.org/2000/svg">
<g clip-path="url(#clip0_6875_24478)">
<path d="M63.74 25.8101C79.74 30.2901 85.81 45.0701 85.81 77.0101" stroke="#3AA194" stroke-linecap="round"/>
<path d="M16.02 77.01C16.02 45.2 22.04 30.41 37.9 25.87" stroke="#3AA194" stroke-linecap="round"/>
<path d="M4 88.42C4 88.7 4.22 88.92 4.5 88.92C4.78 88.92 5 88.7 5 88.42H4ZM5 88.42C5 72.06 6.48 53.38 10.17 38.8C12.01 31.51 14.4 25.28 17.41 20.88C20.42 16.49 23.99 14 28.2 14V13C23.52 13 19.69 15.78 16.58 20.32C13.48 24.86 11.05 31.21 9.19 38.56C5.48 53.25 4 72.02 4 88.42H5ZM28.2 14C31.22 14 33.65 14.68 35.32 15.35C36.16 15.69 36.8 16.02 37.23 16.27C37.45 16.39 37.61 16.5 37.72 16.57C37.77 16.61 37.81 16.63 37.84 16.65C37.85 16.65 37.86 16.67 37.87 16.67C37.87 16.67 37.97 16.5367 38.17 16.27C38.37 16.0033 38.47 15.87 38.47 15.87C38.47 15.87 38.47 15.87 38.46 15.87C38.46 15.87 38.44 15.85 38.42 15.84C38.39 15.82 38.34 15.78 38.28 15.74C38.16 15.66 37.98 15.55 37.74 15.41C37.27 15.14 36.58 14.78 35.7 14.43C33.92 13.71 31.37 13 28.2 13V14Z" fill="#3AA194"/>
<path d="M97.58 88.42C97.58 88.7 97.36 88.92 97.08 88.92C96.8 88.92 96.58 88.7 96.58 88.42H97.58ZM96.58 88.42C96.58 72.06 95.1 53.38 91.41 38.8C89.57 31.51 87.18 25.28 84.17 20.88C81.16 16.49 77.59 14 73.38 14V13C78.06 13 81.89 15.78 85 20.32C88.1 24.86 90.53 31.21 92.39 38.56C96.11 53.25 97.59 72.03 97.59 88.43H96.59L96.58 88.42ZM73.38 14C70.36 14 67.93 14.68 66.26 15.35C65.42 15.69 64.78 16.02 64.35 16.27C64.13 16.39 63.97 16.5 63.86 16.57C63.81 16.61 63.77 16.63 63.74 16.65C63.73 16.65 63.72 16.67 63.71 16.67C63.71 16.67 63.61 16.5367 63.41 16.27C63.21 16.0033 63.11 15.87 63.11 15.87C63.11 15.87 63.11 15.87 63.12 15.87C63.12 15.87 63.14 15.85 63.16 15.84C63.19 15.82 63.24 15.79 63.3 15.74C63.42 15.66 63.6 15.55 63.84 15.41C64.31 15.14 65 14.78 65.88 14.43C67.66 13.71 70.21 13 73.38 13V14Z" fill="#3AA194"/>
<path d="M59.16 49.51C59.71 49.85 60.05 50.26 60.08 50.74C60.22 52.42 56.18 54.1 51.07 54.51C45.96 54.92 41.76 53.83 41.62 52.15C41.59 51.67 41.86 51.23 42.37 50.78L42.54 50.64" stroke="#3AA194" stroke-linecap="round" stroke-linejoin="round"/>
<path d="M59.16 46.84C59.71 47.18 60.05 47.59 60.08 48.04C60.22 49.72 56.18 51.43 51.07 51.81C45.96 52.19 41.76 51.13 41.62 49.45C41.59 49 41.86 48.53 42.37 48.11C42.88 47.7 42.47 48.01 42.54 47.94" stroke="#3AA194" stroke-linecap="round" stroke-linejoin="round"/>
<path d="M59.16 54.96C59.71 55.3 60.05 55.71 60.08 56.16C60.22 57.87 56.18 59.55 51.07 59.93C45.96 60.31 41.76 59.28 41.62 57.57C41.59 57.12 41.86 56.68 42.37 56.23L42.54 56.09" stroke="#3AA194" stroke-linecap="round" stroke-linejoin="round"/>
<path d="M59.16 52.25C59.71 52.59 60.05 53 60.08 53.48C60.22 55.16 56.18 56.84 51.07 57.25C45.97 57.66 41.76 56.57 41.62 54.89C41.59 54.41 41.86 53.97 42.37 53.52L42.54 53.38" stroke="#3AA194" stroke-linecap="round" stroke-linejoin="round"/>
<path d="M59.1301 57.7C59.6801 58.04 59.9901 58.45 60.0201 58.9C60.1601 60.61 56.1901 62.2899 51.1501 62.6699C46.1101 63.0499 41.94 61.99 41.8 60.31C41.77 59.86 42.04 59.39 42.55 58.97L42.7201 58.7999" stroke="#3AA194" stroke-linecap="round" stroke-linejoin="round"/>
<path d="M58.89 60.6399C59.44 60.9799 59.75 61.3899 59.78 61.8399C59.92 63.5499 56.05 65.1999 51.19 65.5699C46.33 65.9399 42.22 64.8899 42.08 63.1699C42.05 62.7199 42.32 62.2799 42.8 61.8299L42.97 61.6899" stroke="#3AA194" stroke-linecap="round" stroke-linejoin="round"/>
<path d="M58.65 63.58C59.16 63.92 59.47 64.3 59.51 64.71C59.61 66.32 55.91 67.89 51.22 68.27C46.53 68.65 42.59 67.62 42.45 66.01C42.42 65.6 42.69 65.15 43.13 64.74L43.3 64.6" stroke="#3AA194" stroke-linecap="round" stroke-linejoin="round"/>
<path d="M58.2701 66.3899C58.6901 66.6299 58.9801 67.0399 59.0601 67.5199C59.2001 69.0999 55.6701 70.5999 51.2201 70.9399C46.7701 71.2799 43.0701 70.2899 42.9301 68.7499C42.9301 68.2599 43.1801 67.7999 43.5801 67.5199L43.7501 67.3799" stroke="#3AA194" stroke-linecap="round" stroke-linejoin="round"/>
<path d="M57.83 69.23C58.23 69.44 58.52 69.81 58.62 70.26C58.72 71.7 55.4 73.14 51.16 73.44C46.91 73.75 43.46 72.86 43.35 71.42C43.35 70.97 43.56 70.55 43.93 70.29L44.1 70.15" stroke="#3AA194" stroke-linecap="round" stroke-linejoin="round"/>
<path d="M57.45 71.84C57.83 72.02 58.1 72.38 58.17 72.8C58.27 74.17 55.16 75.47 51.19 75.78C47.22 76.09 43.97 75.23 43.86 73.9C43.86 73.47 44.09 73.08 44.44 72.84L44.58 72.74" stroke="#3AA194" stroke-linecap="round" stroke-linejoin="round"/>
<path d="M56.77 74.58C57.11 74.76 57.36 75.09 57.42 75.47C57.49 76.67 54.82 77.87 51.39 78.14C47.97 78.41 45.09 77.63 45.02 76.39C45.02 76.01 45.2 75.66 45.5 75.43L45.64 75.33" stroke="#3AA194" stroke-linecap="round" stroke-linejoin="round"/>
<path d="M55.5 77.5199C55.77 77.7299 55.95 77.9299 55.95 78.1699C56.02 79.0899 54.03 79.9799 51.5 80.1899C48.97 80.3999 46.88 79.8099 46.81 78.8899C46.81 78.5999 46.95 78.3399 47.19 78.1699L47.26 78.0699" stroke="#3AA194" stroke-linecap="round" stroke-linejoin="round"/>
<path d="M59.3 46.6999C57.9 47.8599 54.78 48.8199 51.08 49.0999C46.01 49.4799 41.77 48.4199 41.63 46.7399C41.62 46.4999 41.68 46.2599 41.8 46.0599" stroke="#3AA194" stroke-linecap="round" stroke-linejoin="round"/>
<path d="M48.82 80.16L49.23 81.97C49.23 81.97 53.96 82.52 54.02 79.71" stroke="#3AA194" stroke-linecap="round" stroke-linejoin="round"/>
<path d="M60.6 38.6599C58.48 39.5499 54.95 40.1699 50.91 40.2999C46.87 40.4299 43.17 40.0299 41.01 39.3099" stroke="#3AA194" stroke-width="0.25" stroke-miterlimit="10"/>
<path d="M60.6 40.23C58.48 41.09 54.95 41.74 50.91 41.87C46.87 42 43.17 41.6 41.01 40.88" stroke="#3AA194" stroke-width="0.25" stroke-miterlimit="10"/>
<path d="M60.6 41.8099C58.48 42.6699 54.95 43.3199 50.91 43.4499C46.87 43.5799 43.17 43.1799 41.01 42.4199" stroke="#3AA194" stroke-width="0.25" stroke-miterlimit="10"/>
<path d="M59.88 45.98C57.72 46.7 54.5 47.25 50.91 47.35C48.28 47.48 45.63 47.32 43.03 46.87" stroke="#3AA194" stroke-width="0.5" stroke-miterlimit="10"/>
<path d="M60.6 43.38C58.48 44.24 54.95 44.89 50.91 45.02C46.87 45.15 43.17 44.75 41.01 43.99" stroke="#3AA194" stroke-width="0.25" stroke-miterlimit="10"/>
<path d="M60.6001 44.96C58.4801 45.82 54.9501 46.43 50.9101 46.57C46.8701 46.71 43.6201 46.36 41.4301 45.71" stroke="#3AA194" stroke-width="0.25" stroke-miterlimit="10"/>
<path d="M62.55 31.0599C61.73 32.5299 56.87 33.8299 50.91 34.0399C45.53 34.2099 40.98 33.4599 39.47 32.2599" stroke="#3AA194" stroke-width="0.25" stroke-miterlimit="10"/>
<path d="M62.96 29.4315C62.07 30.9015 57.07 32.2199 50.98 32.4599C44.89 32.6999 40.57 31.8615 39.03 30.6615" stroke="#3AA194" stroke-width="0.25" stroke-miterlimit="10"/>
<path d="M61.77 33.38C59.96 34.54 55.81 35.43 50.92 35.61C46.03 35.79 42.12 35.2 40.17 34.24" stroke="#3AA194" stroke-width="0.25" stroke-miterlimit="10"/>
<path d="M61.08 35.34C59.03 36.3 55.26 37.02 50.91 37.15C46.56 37.29 42.93 36.88 40.81 36.09" stroke="#3AA194" stroke-width="0.25" stroke-miterlimit="10"/>
<path d="M60.6 37.12C58.48 37.98 54.95 38.59 50.91 38.73C46.87 38.87 43.17 38.46 41.01 37.74" stroke="#3AA194" stroke-width="0.25" stroke-miterlimit="10"/>
<path d="M63.68 16.33V27.83L60.56 36.73V45.22C60.56 45.22 58.95 48.37 50.77 48.37C42.59 48.37 40.98 45.22 40.98 45.22V36.73L37.9 27.83V16.33" stroke="#3AA194" stroke-linecap="round" stroke-linejoin="round"/>
<path d="M50.81 17.48C57.9179 17.48 63.68 16.7457 63.68 15.84C63.68 14.9342 57.9179 14.2 50.81 14.2C43.7021 14.2 37.94 14.9342 37.94 15.84C37.94 16.7457 43.7021 17.48 50.81 17.48Z" stroke="#3AA194" stroke-linecap="round" stroke-linejoin="round"/>
</g>
<defs>
<clipPath id="clip0_6875_24478">
<rect width="93.58" height="75.92" fill="white" transform="translate(4 13)"/>
</clipPath>
</defs>
</svg>
