<svg width="120" height="120" viewBox="0 0 120 120" fill="none" xmlns="http://www.w3.org/2000/svg">
<path d="M10 60H15ZM30 40H20C18.6739 40 17.4021 40.5268 16.4645 41.4645C15.5268 42.4021 15 43.6739 15 45V75C15 76.3261 15.5268 77.5979 16.4645 78.5355C17.4021 79.4732 18.6739 80 20 80H30M30 35V85C30 86.3261 30.5268 87.5979 31.4645 88.5355C32.4021 89.4732 33.6739 90 35 90H40C41.3261 90 42.5979 89.4732 43.5355 88.5355C44.4732 87.5979 45 86.3261 45 85V35C45 33.6739 44.4732 32.4021 43.5355 31.4645C42.5979 30.5268 41.3261 30 40 30H35C33.6739 30 32.4021 30.5268 31.4645 31.4645C30.5268 32.4021 30 33.6739 30 35ZM45 60H75ZM75 35V85C75 86.3261 75.5268 87.5979 76.4645 88.5355C77.4021 89.4732 78.6739 90 80 90H85C86.3261 90 87.5979 89.4732 88.5355 88.5355C89.4732 87.5979 90 86.3261 90 85V35C90 33.6739 89.4732 32.4021 88.5355 31.4645C87.5979 30.5268 86.3261 30 85 30H80C78.6739 30 77.4021 30.5268 76.4645 31.4645C75.5268 32.4021 75 33.6739 75 35ZM90 40H100C101.326 40 102.598 40.5268 103.536 41.4645C104.473 42.4021 105 43.6739 105 45V75C105 76.3261 104.473 77.5979 103.536 78.5355C102.598 79.4732 101.326 80 100 80H90M110 60H105Z" fill="#EAF4F3"/>
<path d="M10 60H15M30 40H20C18.6739 40 17.4021 40.5268 16.4645 41.4645C15.5268 42.4021 15 43.6739 15 45V75C15 76.3261 15.5268 77.5979 16.4645 78.5355C17.4021 79.4732 18.6739 80 20 80H30M45 60H75M90 40H100C101.326 40 102.598 40.5268 103.536 41.4645C104.473 42.4021 105 43.6739 105 45V75C105 76.3261 104.473 77.5979 103.536 78.5355C102.598 79.4732 101.326 80 100 80H90M110 60H105M30 35V85C30 86.3261 30.5268 87.5979 31.4645 88.5355C32.4021 89.4732 33.6739 90 35 90H40C41.3261 90 42.5979 89.4732 43.5355 88.5355C44.4732 87.5979 45 86.3261 45 85V35C45 33.6739 44.4732 32.4021 43.5355 31.4645C42.5979 30.5268 41.3261 30 40 30H35C33.6739 30 32.4021 30.5268 31.4645 31.4645C30.5268 32.4021 30 33.6739 30 35ZM75 35V85C75 86.3261 75.5268 87.5979 76.4645 88.5355C77.4021 89.4732 78.6739 90 80 90H85C86.3261 90 87.5979 89.4732 88.5355 88.5355C89.4732 87.5979 90 86.3261 90 85V35C90 33.6739 89.4732 32.4021 88.5355 31.4645C87.5979 30.5268 86.3261 30 85 30H80C78.6739 30 77.4021 30.5268 76.4645 31.4645C75.5268 32.4021 75 33.6739 75 35Z" stroke="#3AA194" stroke-width="3" stroke-linecap="round" stroke-linejoin="round"/>
</svg>
